<!-- Creator: CorelDRAW -->
<svg xmlns:rdf="http://www.w3.org/1999/02/22-rdf-syntax-ns#" xmlns="http://www.w3.org/2000/svg" fill-rule="evenodd" xml:space="preserve" height="122" width="452" version="1.1" xmlns:cc="http://creativecommons.org/ns#" xmlns:dc="http://purl.org/dc/elements/1.1/" viewBox="0 0 452 121.85961"><metadata><rdf:RDF><cc:Work rdf:about=""><dc:format>image/svg+xml</dc:format><dc:type rdf:resource="http://purl.org/dc/dcmitype/StillImage"/><dc:title/></cc:Work></rdf:RDF></metadata>
 <defs>
  <style type="text/css">
    .str1 {stroke:#2B2828;stroke-width:0}
    .str2 {stroke:#2B2828;stroke-width:4}
    .str0 {stroke:#2B2828;stroke-width:9}
    .fil3 {fill:none}
    .fil1 {fill:#FFF500}
    .fil2 {fill:#2B2828}
    .fil4 {fill:#DB3931}
    .fil0 {fill:#FEFEFE}
  </style>
   <clipPath id="clipPath1138" clipPathUnits="userSpaceOnUse"><path d="m1681.8,528.44-484.48,0,0,0.582,484.48,0,0-0.582"/></clipPath><clipPath id="clipPath1144" clipPathUnits="userSpaceOnUse"><path d="m1207.5,559.28,246.68,0,0-33.321-246.68,0,0,33.321z"/></clipPath></defs>
<rect height="122" width="452" y="-0.070195" x="0" fill="#FFF"/><g transform="matrix(2,0,0,2,-1112,-658.01991)"><path d="m780,387.71-223,0,0-1,223,0" fill-rule="nonzero" fill="#f9d889"/><path d="m780,388.87-223,0,0-1,223,0" fill-rule="nonzero" fill="#d3d2d2"/><rect height="20.719" width="223.12" y="365.71" x="557" fill="#f9a70d"/><g fill="#FFF" transform="matrix(1.25,0,0,-1.25,623.13281,388.97486)"><path fill-rule="nonzero" fill="#FFF" d="m0,0c-2.398,0-7.444,2.085-11.737,5.575-3.954,3.214-8.667,8.714-8.667,16.664v25.278h40.808v-25.278c0-7.95-4.713-13.45-8.667-16.664-4.293-3.49-9.339-5.575-11.737-5.575"/></g><path fill-rule="nonzero" fill="#f9a70d" d="m623.06,332.45,0,53.464c5.4512,0,22.535-9.5288,22.535-25.352v-28.111h-22.535"/><path fill-rule="nonzero" fill="#FFF" d="m623.16,332.35,0,53.464c-4.195,0-22.535-10.222-22.535-25.352v-28.111h22.535"/><path fill-rule="nonzero" fill="#231f20" d="m611.13,366.45c-0.145,0-0.26125-0.1175-0.26125-0.2625v-6.0275c0-0.14375,0.11625-0.26125,0.26125-0.26125s0.26125,0.1175,0.26125,0.26125v6.0275c0,0.145-0.11625,0.2625-0.26125,0.2625"/><path d="m623.24,365.71,22,0,0-17-22,0z" fill-rule="nonzero" fill="#231f20"/><path fill-rule="nonzero" fill="#231f20" d="m612.45,366.45c-0.145,0-0.2625-0.1175-0.2625-0.2625v-6.0275c0-0.14375,0.1175-0.26125,0.2625-0.26125,0.14375,0,0.26125,0.1175,0.26125,0.26125v6.0275c0,0.145-0.1175,0.2625-0.26125,0.2625"/><path fill-rule="nonzero" fill="#231f20" d="m608.75,364.77,6.2889,0,0-0.52406-6.2889,0,0,0.52406z"/><path fill-rule="nonzero" fill="#231f20" d="m609.82,366.45c-0.145,0-0.2625-0.1175-0.2625-0.2625v-5.5038c0-0.14375,0.1175-0.26125,0.2625-0.26125s0.2625,0.1175,0.2625,0.26125v5.5038c0,0.145-0.1175,0.2625-0.2625,0.2625"/><path fill-rule="nonzero" fill="#b6242a" d="m608.75,369.56-4.1925,0,0-4.1925,2.0962-2.0962,0-16.77-2.0962-2.0962,0-4.1938,2.0962,0,0,2.0975,2.0962,0,0-2.0975,2.0962,0,0,2.0975,2.0962,0,0-2.0975,2.0962,0,0,2.0975,2.0962,0,0-2.0975,2.0962,0,0,4.1938-2.0962,2.0962,0,16.77,2.0962,2.0962,0,4.1925-4.1925,0,0-5.24c0-1.7362-1.4075-3.1438-3.145-3.1438-1.7362,0-3.1438,1.4075-3.1438,3.1438v5.24"/><path fill-rule="nonzero" fill="#231f20" d="m613.75,366.45c-0.14375,0-0.26125-0.0909-0.26125-0.20301v-4.2565c0-0.11117,0.1175-0.20204,0.26125-0.20204,0.145,0,0.2625,0.0909,0.2625,0.20204v4.2565c0,0.11214-0.1175,0.20301-0.2625,0.20301"/><path fill-rule="nonzero" fill="#231f20" d="m610.58,353.83,1.0481,0,0-5.231-1.0481,0,0,5.231z"/><path fill-rule="nonzero" fill="#231f20" d="m608.65,365.92,6.2889,0,0-0.52414-6.2889,0,0,0.52414z"/><path fill-rule="nonzero" fill="#231f20" d="m612.16,353.83,1.0481,0,0-5.231-1.0481,0,0,5.231z"/><path fill-rule="nonzero" fill="#231f20" d="m615.2,369.4,3.6688,0,0-3.8212-2.0962-2.0962,0-16.989,2.0962-2.0962,0-3.8225-1.5725,0,0,2.0975-2.62,0,0-2.0975-1.5725,0,0,2.0975-2.6212,0,0-2.0975-1.5712,0,0,2.0975-2.62,0,0-2.0975-1.5725,0,0,3.8225,2.0962,2.0962,0,16.989-2.0962,2.0962,0,3.8212,3.6688,0,0-4.9788c0-1.8775,1.5275-3.405,3.405-3.405,1.8788,0,3.4075,1.5275,3.4075,3.405v4.9788zm4.1925,0.52375-4.7162,0,0-5.5025c0-1.5888-1.2938-2.8812-2.8838-2.8812-1.5888,0-2.8812,1.2925-2.8812,2.8812v5.5025h-4.7175v-4.5625l2.0975-2.0962v-16.554l-2.0975-2.0962v-4.5638h2.6212v2.0975h1.5725v-2.0975h2.62v2.0975h1.5712v-2.0975h2.6212v2.0975h1.5725v-2.0975h2.62v4.5638l-2.0962,2.0962v16.554l2.0962,2.0962v4.5625"/><path fill-rule="nonzero" fill="#231f20" d="m646.22,331.83-46.119,0,0,29.151c0,16.681,18.795,25.352,23.059,25.352,4.265,0,23.06-8.6712,23.06-25.352v-29.151zm-1.0488,1.0488,0,28.102c0,8.5638-5.1888,14.58-9.5425,18.119-5.3125,4.3188-10.828,6.1862-12.469,6.1862-1.64,0-7.155-1.8675-12.468-6.1862-4.3538-3.5388-9.5425-9.555-9.5425-18.119v-28.102h44.021"/><path fill-rule="nonzero" fill="#231f20" d="m664.33,356.46c0-0.41375-0.1325-0.75125-0.3975-1.0125-0.26625-0.26125-0.5975-0.4925-0.99625-0.695-0.3975-0.20125-0.83-0.39125-1.2975-0.56875-0.46625-0.1775-0.89875-0.39125-1.2975-0.6425-0.3975-0.25125-0.73-0.5625-0.995-0.93125-0.265-0.37-0.3975-0.84-0.3975-1.4112,0-0.80875,0.3025-1.4488,0.9075-1.9212,0.605-0.47375,1.465-0.71,2.5788-0.71,0.6475,0,1.2362,0.0437,1.7675,0.1325,0.53125,0.0888,0.945,0.2025,1.2425,0.34l-0.39875,1.0938c-0.24375-0.11125-0.6025-0.21875-1.075-0.32-0.47125-0.10125-1.005-0.1525-1.6-0.1525-0.7,0-1.225,0.145-1.5762,0.43625-0.35,0.29-0.525,0.6325-0.525,1.0275,0,0.38375,0.1325,0.70375,0.3975,0.96s0.5975,0.485,0.995,0.6875c0.39875,0.2025,0.83125,0.40125,1.2988,0.59875,0.46625,0.1975,0.89875,0.42625,1.2975,0.6875,0.3975,0.26125,0.73,0.57375,0.995,0.9375,0.265,0.365,0.3975,0.81875,0.3975,1.36,0,0.44375-0.085,0.8425-0.25375,1.1975-0.17,0.355-0.42,0.66-0.74875,0.91625-0.33,0.25625-0.7275,0.45375-1.1938,0.59125-0.4675,0.1375-0.99875,0.20625-1.5925,0.20625-0.79625,0-1.455-0.0563-1.975-0.16875-0.52-0.11375-0.9225-0.23875-1.21-0.3775l0.44625-1.0938c0.24375,0.125,0.605,0.2475,1.0825,0.3675s1.0138,0.18,1.6088,0.18c0.35,0,0.67875-0.0325,0.98625-0.0962s0.57375-0.1675,0.79625-0.31125c0.2225-0.1425,0.40125-0.3225,0.53375-0.53875s0.19875-0.47375,0.19875-0.76875"/><path fill-rule="nonzero" fill="#231f20" d="m675.74,349.83-3.4712,0,0,9.2525-1.3212,0,0-9.2525-3.4712,0,0-1.0938,8.2638,0,0,1.0938"/><path fill-rule="nonzero" fill="#231f20" d="m678.74,355.16,3.2638,0-1.2362-3.1488-0.39625-1.5662-0.015,0-0.39625,1.5962-1.22,3.1188zm3.6588,1.0638-4.0862,0-1.1088,2.8675-1.3225,0,4.22-10.509,0.605,0,4.235,10.509-1.4012,0-1.1412-2.8675"/><path fill-rule="nonzero" fill="#231f20" d="m690.23,349.72h-0.45375c-0.165,0-0.32625,0.005-0.485,0.015-0.16,0.01-0.30625,0.02-0.43875,0.0288-0.1325,0.01-0.23625,0.02-0.31,0.03v8.2762c0.0525,0.0113,0.15375,0.0175,0.3025,0.0225s0.3025,0.01,0.46125,0.015c0.16,0.005,0.31375,0.01,0.4625,0.015s0.24875,0.007,0.3025,0.007c0.7425,0,1.3662-0.11875,1.87-0.355,0.50375-0.23625,0.90875-0.55375,1.21-0.95375,0.30375-0.39875,0.5175-0.85625,0.645-1.3738,0.1275-0.5175,0.19125-1.0525,0.19125-1.6038,0-0.4825-0.0588-0.96875-0.175-1.4562-0.1175-0.4875-0.31875-0.92875-0.605-1.3225s-0.67125-0.71625-1.155-0.9675c-0.4825-0.2525-1.09-0.3775-1.8225-0.3775zm-3.0088-0.975c0.20125-0.03,0.42625-0.0525,0.67625-0.0675,0.24875-0.0138,0.51-0.0238,0.78-0.0288,0.27125-0.005,0.53625-0.01,0.79625-0.015s0.50125-0.007,0.725-0.007c0.89125,0,1.6638,0.12875,2.3162,0.38375,0.6525,0.25625,1.1912,0.61375,1.6162,1.0725,0.42375,0.4575,0.74,1.0075,0.9475,1.6475,0.20625,0.64,0.31,1.345,0.31,2.1138,0,0.7-0.0975,1.3725-0.295,2.0175-0.19625,0.645-0.50625,1.2175-0.93125,1.7138-0.42375,0.49875-0.97625,0.8975-1.655,1.1975-0.68,0.30125-1.5025,0.45125-2.4688,0.45125-0.17,0-0.39-0.002-0.66-0.007-0.27125-0.005-0.55-0.015-0.83625-0.03s-0.5525-0.0263-0.79625-0.0363-0.42-0.025-0.525-0.045v-10.36"/><path fill-rule="nonzero" fill="#231f20" d="m704.86,349.83-3.4712,0,0,9.2525-1.3212,0,0-9.2525-3.4712,0,0-1.0938,8.2638,0,0,1.0938"/><path fill-rule="nonzero" fill="#231f20" d="m720.37,353.72,0.23875-2.055-0.095,0-0.685,1.6562-2.3725,3.8575-0.7,0-2.5-3.8725-0.70125-1.6412-0.0788,0,0.31875,2.04,0,5.38-2.0712,0,0-10.346,1.9912,0,2.9775,4.73,0.525,1.1825,0.0637,0,0.4775-1.2125,2.8188-4.7,1.9738,0,0,10.346-2.1812,0,0-5.365"/><path fill-rule="nonzero" fill="#231f20" d="m727.2,353.91c0,0.5225,0.0475,1.0025,0.14375,1.4412,0.095,0.43875,0.24125,0.815,0.4375,1.13,0.19625,0.31625,0.44875,0.5625,0.75625,0.74,0.3075,0.17625,0.67375,0.265,1.0988,0.265,0.775,0,1.3738-0.28,1.7988-0.8425,0.425-0.56125,0.6375-1.4725,0.6375-2.7338,0-0.5025-0.045-0.97-0.135-1.4038-0.0913-0.43375-0.23125-0.81375-0.4225-1.1388-0.19125-0.325-0.44-0.57875-0.74875-0.76125-0.3075-0.18125-0.68375-0.2725-1.13-0.2725-0.775,0-1.375,0.2875-1.7988,0.86375-0.425,0.57625-0.6375,1.4812-0.6375,2.7125zm-2.2925,0c0-1.7238,0.40875-3.0525,1.2262-3.9838,0.81625-0.93125,1.985-1.3962,3.5025-1.3962,0.79625,0,1.4912,0.12875,2.0862,0.38375,0.59375,0.25625,1.0875,0.62125,1.48,1.0938,0.3925,0.47375,0.685,1.04,0.87625,1.7s0.28625,1.395,0.28625,2.2025c0,1.7238-0.41125,3.0525-1.2338,3.9838-0.8225,0.93-1.9875,1.3962-3.495,1.3962-0.8075,0-1.5075-0.12875-2.1012-0.38375-0.595-0.25625-1.0862-0.62125-1.4738-1.0938-0.3875-0.47375-0.67625-1.04-0.8675-1.7s-0.28625-1.395-0.28625-2.2025"/><path fill-rule="nonzero" fill="#231f20" d="m736.72,348.74,6.6075,0,0,1.8038-4.4262,0,0,2.4088,4.0288,0,0,1.8025-4.0288,0,0,2.5275,4.5062,0,0,1.8038-6.6875,0,0-10.346"/><path fill-rule="nonzero" fill="#231f20" d="m749.18,350.4c-0.2225,0-0.44375,0.005-0.66125,0.015s-0.385,0.0288-0.50125,0.0587v3h0.92375c0.605,0,1.0875-0.1275,1.4488-0.38375,0.36125-0.25625,0.54125-0.68,0.54125-1.2712,0-0.44375-0.14875-0.79125-0.44625-1.0425-0.29625-0.25125-0.7325-0.37625-1.305-0.37625zm-3.3438-1.5525c0.24375-0.0387,0.50625-0.075,0.78875-0.11,0.28-0.035,0.5625-0.0613,0.84375-0.0813,0.28-0.02,0.55375-0.035,0.82-0.045,0.265-0.009,0.50875-0.015,0.7325-0.015,0.51875,0,1.0312,0.045,1.5362,0.13375,0.50375,0.0888,0.955,0.24125,1.3525,0.4575,0.39875,0.2175,0.7175,0.515,0.95625,0.895,0.23875,0.37875,0.3575,0.855,0.3575,1.4262,0,0.8475-0.2125,1.5362-0.63625,2.0688-0.425,0.5325-0.9925,0.90125-1.7038,1.1088l0.78,0.45875,2.5475,3.945h-2.5162l-2.5312-4.0488-1.1462-0.1925v4.2412h-2.1812v-10.242"/><path fill-rule="nonzero" fill="#231f20" d="m761.02,356.31c0-0.315-0.125-0.57125-0.375-0.76875-0.24875-0.19625-0.5625-0.37625-0.93875-0.53875-0.3775-0.1625-0.78625-0.33-1.2262-0.5025-0.44-0.1725-0.84875-0.385-1.225-0.63625-0.3775-0.25125-0.69-0.56375-0.94-0.93875-0.25-0.37375-0.37375-0.85125-0.37375-1.4338,0-0.50125,0.09-0.9375,0.27-1.3075,0.18-0.36875,0.4375-0.6775,0.7725-0.92375,0.33375-0.24625,0.73-0.42875,1.1862-0.54625,0.45625-0.11875,0.965-0.1775,1.5288-0.1775,0.64625,0,1.2575,0.0512,1.83,0.155,0.57375,0.10375,1.0462,0.25375,1.4175,0.45125l-0.685,1.6988c-0.2325-0.1375-0.58375-0.26375-1.05-0.37625-0.4675-0.11375-0.97125-0.17-1.5125-0.17-0.51,0-0.9,0.0937-1.1712,0.28-0.27,0.1875-0.405,0.43875-0.405,0.75375,0,0.29625,0.12375,0.5425,0.37375,0.74,0.24875,0.19625,0.5625,0.37875,0.94,0.54625,0.37625,0.1675,0.785,0.34,1.225,0.5175,0.44125,0.1775,0.85,0.39125,1.2262,0.6425,0.3775,0.25125,0.69,0.5625,0.94,0.93125,0.24875,0.37,0.37375,0.83,0.37375,1.3825,0,0.55125-0.0987,1.0275-0.295,1.4262-0.19625,0.39875-0.4725,0.73125-0.8275,0.9975-0.35625,0.26625-0.78625,0.4625-1.29,0.59125-0.50375,0.1275-1.0588,0.1925-1.6638,0.1925-0.79625,0-1.4962-0.07-2.1012-0.2075s-1.0512-0.275-1.3375-0.41375l0.7-1.73c0.1175,0.06,0.26875,0.12375,0.45375,0.1925,0.18625,0.0687,0.39625,0.13375,0.62875,0.1925,0.23375,0.0587,0.48125,0.10875,0.74125,0.1475,0.26,0.04,0.5275,0.06,0.80375,0.06,0.6475,0,1.1438-0.10125,1.4888-0.30375,0.345-0.20125,0.5175-0.51,0.5175-0.92375"/><path d="m623,385.71,1,0,0-53-1,0z" fill-rule="nonzero" fill="#231f20"/><g transform="matrix(1.25,0,0,-1.25,-951.95598,1048.9849)"><g clip-path="url(#clipPath1138)"><g clip-path="url(#clipPath1144)"/></g></g></g></svg>
