<?xml version="1.0" encoding="utf-8"?>
<!-- Generator: Adobe Illustrator 21.1.0, SVG Export Plug-In . SVG Version: 6.00 Build 0)  -->
<svg version="1.1" xmlns="http://www.w3.org/2000/svg" xmlns:xlink="http://www.w3.org/1999/xlink" x="0px" y="0px"
	 viewBox="0 0 1920 1080" style="enable-background:new 0 0 1920 1080;" xml:space="preserve">
<style type="text/css">
	.st0{fill:#F1F1F1;}
	.st1{fill:#FC6153;}
	.st2{fill:#00E6C7;}
	.st3{fill:#FFFFFF;}
	.st4{display:none;}
	.st5{display:inline;fill:none;stroke:#000000;stroke-width:0.25;stroke-miterlimit:10;}
</style>
<g id="Ebene_1">
	<rect x="1325" y="885.7" class="st0" width="595.2" height="194.3"/>
	<rect x="1191.3" y="540.5" class="st1" width="133.9" height="345"/>
	<rect x="960.8" y="885.7" class="st2" width="364.3" height="194.3"/>
	<polygon class="st3" points="1191.3,540.5 1191.3,885.5 960.7,885.5 960.7,672.5 960.7,540.5 	"/>
	<polygon class="st0" points="959.6,0.2 959.6,540 1185.2,540 1316.2,540 1920,540 1920,0.2 	"/>
	<polygon class="st1" points="0,658.9 0,1080 960.7,1080 960.7,870.9 960.7,658.9 	"/>
	<polygon class="st2" points="0,0.2 0,658.9 960.7,658.9 960.7,528 960.7,0.2 	"/>
	<rect x="1325.1" y="540.5" class="st2" width="594.9" height="345"/>
</g>
<g id="Ebene_2" class="st4">
	<line class="st5" x1="960" y1="-243" x2="960" y2="1323"/>
	<line class="st5" x1="1743" y1="540" x2="177" y2="540"/>
</g>
</svg>
