<?xml version="1.0" encoding="utf-8"?>
<!-- Generator: Adobe Illustrator 21.1.0, SVG Export Plug-In . SVG Version: 6.00 Build 0)  -->
<svg version="1.1" id="Ebene_1" xmlns="http://www.w3.org/2000/svg" xmlns:xlink="http://www.w3.org/1999/xlink" x="0px" y="0px"
	 viewBox="0 0 768 1024" style="enable-background:new 0 0 768 1024;" xml:space="preserve">
<style type="text/css">
	.st0{display:none;}
	.st1{display:inline;fill:none;stroke:#000000;stroke-width:0.25;stroke-miterlimit:10;}
	.st2{fill:#FC6153;}
	.st3{fill:#00E6C7;}
	.st4{fill:#FFFFFF;}
	.st5{fill:#F1F1F1;}
</style>
<g id="Ebene_2" class="st0">
	<line class="st1" x1="384" y1="-243" x2="384" y2="1323"/>
	<line class="st1" x1="1167" y1="540" x2="-399" y2="540"/>
</g>
<rect x="615.2" y="512.4" class="st2" width="152.8" height="327.2"/>
<rect x="384.7" y="839.7" class="st3" width="383.3" height="184.3"/>
<polygon class="st4" points="615.2,512.4 615.2,839.6 384.6,839.6 384.6,637.6 384.6,512.4 "/>
<polygon class="st5" points="383.5,0 383.5,511.9 473.8,511.9 526.3,511.9 768,511.9 768,0 "/>
<polygon class="st2" points="0,624.7 0,1024 384.6,1024 384.6,825.7 384.6,624.7 "/>
<polygon class="st3" points="0,0 0,624.7 384.6,624.7 384.6,500.5 384.6,0 "/>
</svg>
