<?xml version="1.0" encoding="utf-8"?>
<!-- Generator: Adobe Illustrator 21.1.0, SVG Export Plug-In . SVG Version: 6.00 Build 0)  -->
<svg version="1.1" id="Ebene_1" xmlns="http://www.w3.org/2000/svg" xmlns:xlink="http://www.w3.org/1999/xlink" x="0px" y="0px"
	 viewBox="0 0 768 1024" style="enable-background:new 0 0 768 1024;" xml:space="preserve">
<style type="text/css">
	.st0{fill:#F4F4F4;}
	.st1{display:none;}
	.st2{display:inline;fill:none;stroke:#000000;stroke-width:0.25;stroke-miterlimit:10;}
	.st3{clip-path:url(#SVGID_2_);}
	.st4{fill:#FC6153;}
	.st5{fill:#00E6C7;}
	.st6{fill:#FFFFFF;}
</style>
<rect x="-0.9" y="-0.4" class="st0" width="769.7" height="1024.8"/>
<g id="Ebene_2" class="st1">
	<line class="st2" x1="384" y1="-243" x2="384" y2="1323"/>
	<line class="st2" x1="1167" y1="540" x2="-399" y2="540"/>
</g>
<g>
	<defs>
		<rect id="SVGID_1_" x="-0.2" y="-0.9" width="769.7" height="1024.8"/>
	</defs>
	<clipPath id="SVGID_2_">
		<use xlink:href="#SVGID_1_"  style="overflow:visible;"/>
	</clipPath>
	<g class="st3">
		<path class="st0" d="M-2.4,792.6l0.6-1.7c-0.2,0-0.4-0.1-0.6-0.1V792.6z"/>
		<polygon class="st0" points="699,34.5 768.3,14 22.5,226.2 		"/>
		<polygon class="st4" points="768.5,465.6 768.6,517.8 768.6,517.8 768.6,465.6 		"/>
		<path class="st4" d="M526.7,561.1l-171,202.1L589.5,553C572.9,556.1,551,559.4,526.7,561.1z"/>
		<polygon class="st4" points="627.2,531.3 768.6,517.8 768.5,465.6 648.3,473.8 		"/>
		<polygon class="st5" points="768.6,1024 768.6,525.1 768.6,525.1 		"/>
		<polygon class="st5" points="768.6,525.1 768.6,525.1 768.6,517.8 768.6,517.8 		"/>
		<path class="st5" d="M768.6,1024l-0.1-498.9l0-7.2l-141.3,13.5l-5.3,14.4c0,0-12.4,3.5-32.5,7.3L355.7,763.2l-1.4,1.3L229.7,674
			l-39,106.3c0,0-135.5,2.8-191,6.2l-1.1,136.5l360.5,18L770,999L768.6,1024z"/>
		<path class="st5" d="M59.1,524.7l65.5-65.9L204,250l9,3.4l-9.3,24.4c17.7-7.2,81.2-31.4,138.4-31.4c17.3,0,38.5,5.8,61.2,13.5
			l54.5-32.6l310.4-32.3V-2.4l-236.7,3l-509,225.6l-24,6.8v0l-0.3,0.1l-0.7,0.6v269.9C18.1,511.1,39.1,519,59.1,524.7z"/>
		<polygon class="st4" points="383.1,-0.9 233.1,131.1 528.6,0.6 		"/>
		<polygon class="st4" points="22.5,226.2 -1.4,233 -1.4,233.1 		"/>
		<path class="st4" d="M430.1,269.5c16.5,6.1,33.4,12.3,49.8,17.5l4.1-2.1l284.3-80.4v-2.5l-322,57L430.1,269.5z"/>
		<path class="st4" d="M91.9,531.8c1.6,0.2,3.2,0.4,4.7,0.5l3-7.9L91.9,531.8z"/>
		<path class="st4" d="M403.4,260c8.7,3,17.6,6.2,26.7,9.5l16.2-10.6l322-57v-6.8l-310.4,32.3L403.4,260z"/>
		<path class="st4" d="M99.6,524.4l25-65.7l-65.5,65.9c11.3,3.2,22.3,5.7,32.7,7.1L99.6,524.4z"/>
		<polygon class="st4" points="367.8,937.9 0,888 0,963 		"/>
		<path class="st6" d="M120.1,532.7c-7.6,4.2-13.5,7.8-17.2,10.2L7.9,792.7c0.4,0.1,0.8,0.1,1.2,0.2c28.1,4.4,56.7,4.7,82.7,3
			c55.5-3.4,98.9-15.6,98.9-15.6l39-106.3l58.5-159.6C288.2,514.4,185.5,530.7,120.1,532.7z"/>
		<path class="st6" d="M91.9,531.8c-10.4-1.4-21.4-3.9-32.7-7.1c-20-5.7-41-13.6-61.5-21.1V579v32.4v21.6v157.9
			c0.2,0,0.4,0.1,0.6,0.1l90.7-238.4l7.7-20.2C95,532.2,93.5,532,91.9,531.8z"/>
		<g>
			<path class="st6" d="M539,298.3c-17.7,0-38-4.7-59.1-11.4c-16.4-5.1-33.2-11.4-49.8-17.5l-198,129.2L115.8,509.1l-9.1,23.8
				c0.3,0,0.7,0,1,0c0.2,0,0.5,0,0.7,0c3.7,0,7.6-0.1,11.7-0.2c27.6-15.2,77.9-38.3,129.8-38.3c68.5,0,114,52,190.4,63.9
				c29.4,4.6,59.4,4.7,86.3,2.8c24.3-1.7,46.2-5,62.8-8.1c20-3.8,32.5-7.3,32.5-7.3l5.3-14.4l21.1-57.5l71.1-194
				C719.4,279.8,602.8,298.3,539,298.3z"/>
			<path class="st6" d="M403.4,260c-22.7-7.7-43.9-13.5-61.2-13.5c-57.2,0-120.7,24.2-138.4,31.4l-62.4,164.1l61.8-62.2L403.4,260z"
				/>
		</g>
		<path class="st6" d="M141.3,441.9l-25.5,67.2l116.3-110.4l198-129.2c-9-3.3-18-6.5-26.7-9.5L203.1,379.7L141.3,441.9z"/>
		<path class="st6" d="M105.7,535.6l-2.7,7.2c3.7-2.4,9.6-6,17.2-10.2c-4.1,0.1-8,0.2-11.7,0.2L105.7,535.6z"/>
		<path class="st6" d="M108.4,532.9c-0.2,0-0.5,0-0.7,0c-0.3,0-0.7,0-1,0l-1.1,2.8L108.4,532.9z"/>
		<path class="st4" d="M-2.4,792.6v27.2l10.3-27.1c-3.3-0.5-6.5-1.1-9.7-1.8L-2.4,792.6z"/>
		<path class="st4" d="M198.9,279.8c0,0,1.7-0.7,4.8-2l9.3-24.4l-9-3.4l-79.4,208.8l10.9-11L198.9,279.8z"/>
		<path class="st4" d="M99.6,524.4l-3,7.9c2.3,0.2,4.6,0.4,6.8,0.5l7-18.6L99.6,524.4z"/>
		<polygon class="st4" points="110.4,514.1 135.5,447.8 124.6,458.8 99.6,524.4 		"/>
		<path class="st4" d="M98.5,545.8l1.8-4.7l-11.3,11.4L-1.8,790.9c3.2,0.7,6.4,1.3,9.7,1.8l95.1-249.9
			C100.1,544.7,98.5,545.8,98.5,545.8z"/>
		<path class="st4" d="M96.6,532.3l-7.7,20.2l11.3-11.4l3.1-8.3C101.2,532.7,98.9,532.5,96.6,532.3z"/>
		<path class="st4" d="M135.5,447.8l5.8-5.9l62.4-164.1c-3.1,1.3-4.8,2-4.8,2L135.5,447.8z"/>
		<path class="st4" d="M103.4,532.8c1.1,0,2.2,0.1,3.3,0.1l9.1-23.8l-5.3,5.1L103.4,532.8z"/>
		<polygon class="st4" points="135.5,447.8 110.4,514.1 115.8,509.1 141.3,441.9 		"/>
		<path class="st4" d="M100.3,541.1l-1.8,4.7c0,0,1.6-1.1,4.4-2.9l2.7-7.2L100.3,541.1z"/>
		<path class="st4" d="M106.7,532.9c-1.1,0-2.2,0-3.3-0.1l-3.1,8.3l5.4-5.5L106.7,532.9z"/>
		<path class="st6" d="M-2.4,790.8c-0.5-0.1-1-0.2-1.5-0.3l0,6l1.5-3.8V790.8z"/>
		<path class="st6" d="M-2.4,632.9l-1.5,0l0,157.5c0.5,0.1,1,0.2,1.5,0.3V632.9z"/>
		<path class="st6" d="M-2.4,579v-75.4c-0.5-0.2-1-0.4-1.5-0.5l0,76.1L-2.4,579z"/>
		<polygon class="st6" points="-3.9,611.4 -3.9,632.9 -2.4,632.9 -2.4,611.4 		"/>
		<polygon class="st6" points="-3.9,579.2 -3.9,611.4 -2.4,611.4 -2.4,579 		"/>
	</g>
</g>
</svg>
