<?xml version="1.0" encoding="utf-8"?>
<!-- Generator: Adobe Illustrator 21.1.0, SVG Export Plug-In . SVG Version: 6.00 Build 0)  -->
<svg version="1.1" id="Ebene_1" xmlns="http://www.w3.org/2000/svg" xmlns:xlink="http://www.w3.org/1999/xlink" x="0px" y="0px"
	 viewBox="0 0 640 1080" style="enable-background:new 0 0 640 1080;" xml:space="preserve">
<style type="text/css">
	.st0{display:none;}
	.st1{display:inline;fill:none;stroke:#000000;stroke-width:0.25;stroke-miterlimit:10;}
	.st2{fill:#FC6153;}
	.st3{clip-path:url(#SVGID_2_);fill:#00E6C7;}
	.st4{clip-path:url(#SVGID_2_);fill:#FC6153;}
	.st5{clip-path:url(#SVGID_4_);fill:#FFFFFF;}
</style>
<g id="Ebene_2" class="st0">
	<line class="st1" x1="960" y1="-243" x2="960" y2="1323"/>
	<line class="st1" x1="1743" y1="540" x2="177" y2="540"/>
</g>
<rect class="st2" width="640" height="1082.6"/>
<g>
	<defs>
		<rect id="SVGID_1_" width="640" height="1082.4"/>
	</defs>
	<clipPath id="SVGID_2_">
		<use xlink:href="#SVGID_1_"  style="overflow:visible;"/>
	</clipPath>
	<path class="st3" d="M2019.2,1138c-21.3,108.4-111.2,194.3-252,255.1c-20.1,8.7-41.2,16.8-63.2,24.3
		c-231.2,61.1-470.9,94.8-708.2,75c-19.1-0.8-38.1-1.6-57.1-2.5c-76.1-3.4-152-7.9-228.1-14.8c-16.8-1.9-33.6-4-50.5-6.2
		c-135.3-17.6-275.9-42.9-419.3-76.3c-48.9-11.4-97.1-23.5-144.6-36.2c-15.7-4.2-31.4-8.6-46.9-13
		c-121.2-37.1-240.3-74.7-358.4-117.7c-14.1-5.4-28.2-10.8-42.1-16.3c-597.5-236.2-988.2-569.4-934.9-840.5
		c47-239,427.2-368.4,951.2-361.2c15,0.2,30.1,0.5,45.3,1c241.3,0.4,474.3,62.9,716.3,87.7c16.7,0.6,33.3,1.1,50,0.5
		c14.5-0.4,29.1-1.6,43.5-3.6C596.9,82.9,680,69,756.5,79c19.1,2.5,37.9,6.5,56,12.3c119.7,50.4,238.1,101.4,346,178
		c18,12.8,35.7,26.3,53,40.6c66.5,67.4,144.6,112.1,227.4,151.9c14.5,7.9,28.7,15.8,42.7,23.8
		C1846.2,692.7,2059.5,933.1,2019.2,1138"/>
	<path class="st4" d="M1831.4,1087.6c-5.7,29.1-17,56.4-33.3,81.7c-8.2,12.7-17.6,24.9-28.3,36.7
		c-222.7,205.1-536.1,186.9-810.7,177.4c-20.2,0.3-40.5,0.9-60.8,1.8c-20.4,0.8-40.8,1.9-61.4,3.2c-60.3,4.2-119.3,2.1-179.4-4.7
		c-19.1-1.9-38.2-3.8-57.3-5.7c-19.1-1.9-38.2-3.7-57.2-5.5c-16.3-2.4-32.6-5-49-7.7c-82-13.5-165.8-30.1-250.7-49.9
		c-17-4-33.9-8-50.6-12.1c-14.9-3.1-28-6.2-41.9-12.7c-126.8-52.7-250.8-88.2-379.9-121.6c-32.1-7.5-61.4-20.9-92.4-32.2
		c-14.5-5.8-28.8-11.7-43.1-17.6c-488.5-208.3-800.9-488.2-755.7-718c38.8-197,331-310.7,743.8-321.9c13.8-0.4,27.7-0.6,41.7-0.8
		c72.1-1.3,143.7-1.2,214.9,8.7c202.7,30.6,405.6,76.2,610.9,56.1c19.3-2,38.5-4.6,57.7-7.6c38.4-5.9,76.7-13.2,115.2-20.2
		c31.5-5.1,66-9.9,97.9-5.8c16,2.1,31.3,6.4,46.1,13.7c60.5,44.7,127.1,70.1,196.7,96.3c41.3,14.6,77.9,38,111.1,70.6
		c11.9,11.9,23.3,24.3,34.5,36.8c87.6,117.6,216,177.3,330.9,258.3c11.7,7.9,23.1,15.8,34.3,23.8
		C1738.7,767.1,1860.9,938,1831.4,1087.6"/>
	<path class="st3" d="M1735.2,1063.5c-2.7,13.7-6.7,26.9-11.9,39.7c-116.7,222.4-378.7,229.4-592.4,216.1
		c-60.2-4.1-117.5,0.8-176.2,5.2c-15.9,1.2-31.8,2.6-47.6,3.9c-94.8,8.1-188.2,16.5-283,10.6c-17.5,0.1-34.3-0.1-50.8-1.2
		c-16.5-1.1-32.8-3-49.4-6.5c-15.3-2.3-30.7-4.7-46.1-7.2c-64.3-10.6-129.7-23.2-195.9-37.8c-13.2-2.9-26.5-5.9-39.8-9
		c-16.5-4.4-31.4-6.2-47.1-11.6c-78.6-26.6-147.2-80.7-229.4-96.5c-112.5-24.5-228-41.5-333.9-93.3c-12.9-5.7-25.6-11.5-38.2-17.3
		C-821,867-1079.8,621.5-1039.7,417.7c35.2-179.2,293.6-285,661.8-301.3c13.6-0.6,27.4-1.1,41.3-1.5c69.6-1.2,142.1-5.8,211.2,6.9
		c205.2,41.1,413.5,74.7,621.5,42.7c15.5-2.2,30.9-4.7,46.3-7.3c30.8-5.3,61.6-11.5,92.1-17.6c23.7-4.4,50.3-9.3,76.5-10.7
		c13.1-0.7,26.2-0.5,38.8,1c23.4,2.1,47.8,9.5,67.8,24.1c66.9,47.1,144.8,61.9,215.9,103.3c14.5,7.5,28.6,15.4,41.7,25
		c13.1,9.7,25.3,21.2,36.1,36.2c40.2,59.1,83.6,117.2,141.3,157.2c78.8,56.5,157.9,111.3,233,172.5c11.2,8.8,22.1,17.5,32.7,26.2
		C1676.7,805.5,1759.1,941.9,1735.2,1063.5"/>
	<path class="st4" d="M1569.3,1027.1c-17,101.8-102.4,179.8-202,174.8c-131.1-7.3-257.5-23.5-382.9,12.7
		c-17.9,3.7-35.7,7.4-53.5,11.1c-88.9,18.5-177.5,35.1-268.1,40.9c-18.3,1.6-36.5,2.7-54.5,3.2c-54.1,1.5-107.5-2.2-160.6-13
		c-16.4-2.7-32.9-5.6-49.5-8.7c-24.9-4.6-49.9-9.5-75-14.7c-12.6-2.6-25.2-5.3-37.8-8.1c-72.7-10.2-125.5-67.3-184.3-109.1
		c-14.8-10.1-32-15.7-48-19.5c-117.4-30.6-244.5-12.1-357.5-64.7c-14.5-5.9-28.3-12-42.3-18.2c-355.4-168.1-575.6-380.9-540.7-558
		c27.6-140.3,209.6-229.8,476.7-258.5c12.1-1.3,24.5-2.5,36.9-3.6c120.7-12,241.1-3.9,359.1,23.6c169.3,37.7,347.8,21.3,517.7-11.3
		c13.7-3.6,27.4-7.6,41.2-11.6c41.4-12,82.9-24,121.2-25.8c15.3-0.7,30.3,0.1,45.1,3c12.9,3.7,26.3,5.1,38.8,11.4
		c77.2,41.2,152.4,62,232.6,95.6c18.2,8.4,34.8,18.9,49.8,31.3c15.1,12.4,28.6,26.8,40.7,42.8c37.6,56.8,63.9,124.3,120.8,160.7
		c53.7,33.2,101.5,72.5,146.1,115.5c14.8,14.3,29.3,29.1,43.5,44.1c56.1,63.3,117.4,123.9,158.6,200.3c9,17.7,16.2,35.2,21.3,52.6
		c5.1,17.4,8.3,34.6,9.3,51.5C1573.3,994.4,1572.3,1011,1569.3,1027.1"/>
	<path class="st3" d="M1475,993.7c-31.5,169.6-217.2,129.7-339.6,124.5c-47-1-87.9,21-133.1,33.7c-19.8,5.1-39.6,10-59.3,14.9
		c-98.8,24.3-197.5,45.4-297.6,58.8c-15.5,1.7-31,3.2-46.5,4.2c-31,2-62.1,2.1-93.5-1.4c-15.5-1.5-30.9-3.3-46.5-5.3
		c-25.6-3.9-51.4-8.1-77.5-12.8c-13-2.3-26.1-4.7-39.2-7.3c-37.4-6.3-73.9-14.8-106.3-35.6c-60.9-39-104.4-112.1-180.6-119.9
		c-119.7-11.3-241.8,5.1-353.8-44.5c-13.8-5.6-27-11.3-40.3-17.2c-336.2-159-544.4-360.3-511.5-527.7
		c25.4-128.9,188.6-212.5,429.6-242.1c12.7-1.6,25.6-3,38.7-4.2c81.8-6.1,167-21.1,246.6,0.7c211.2,57.4,431.1,47.3,643.1,2.6
		c16.3-3.2,32.6-6.5,48.9-9.7c16.3-3.2,32.7-6.3,49-9.1c18.7-3.3,37.4-6.2,56.3-8.7c41.2-8.6,82.9,4.4,121.5,25
		c29,15,53.6,37.3,83.9,46c59.1,17.1,112.6,45.3,155.8,86.2c14.4,13.6,27.7,28.7,39.9,44.7c31.9,36.5,43.5,93.8,82.6,119.5
		c45,29.7,86.3,63.3,124,100.3c12.6,12.3,24.8,25.1,36.6,38.2c68.4,83.9,142.2,173.9,169.2,284
		C1478.6,952.9,1478.5,973.8,1475,993.7"/>
	<path class="st4" d="M1397.4,951.9c-7,54.9-50.7,91.1-99.3,98c-78.5,11.6-156-4.8-231.4,26c-20.1,5.2-40.2,10.3-60.2,15.3
		c-120.4,30-240.4,56.1-362.1,79.7c-19.1,3.1-38.2,5.7-57.3,7.5c-38.2,3.6-76.4,3.7-115.2-3.5c-23.1-3.4-46.5-7.3-70-11.5
		c-89.9-4.9-163.2-58.4-221-136.5c-27.6-37.9-70.7-51.3-115.1-50c-138.8,0.8-275.8,15.4-397.1-57.9c-11.7-6.2-23.1-12.5-34.3-18.8
		C-598.9,768.4-735.9,615-710.2,484.3c17.8-90.2,110.3-155.9,252.4-193.3c20.3-5.3,41.6-10.1,63.9-14.3
		c132.7-30.6,265.8-17.8,400,5.1c171.2,28.2,343.2-9.6,511.7-45.2c21-4.4,42.1-8.6,63.2-12.6c50.8-8.8,103.4-28,148.3-1
		c75.2,44,146.4,77.2,223.9,116.7c15.2,7.7,30.3,16.6,43.6,27.3c13.3,10.8,24.9,23.4,33.5,38.4c41,77.7,93.7,143,172.4,184.5
		c19.1,10,36.3,22.3,51.7,36.6c15.5,14.3,29.2,30.5,41.5,48c48.6,69.4,75.1,151.8,100.2,233.5
		C1398.7,923.6,1399.1,938.2,1397.4,951.9"/>
	<path class="st3" d="M1267,862.1c-53,135.1-213.2,144.2-329.6,170.2c-86.2,19.7-172.2,31.2-258.5,50c-16.1,3.6-32.2,7.2-48.4,10.3
		c-16.3,3.1-32.7,5.8-49.3,7.7c-19.9,0.3-38.9,4.2-57.8,1.7c-20.5-0.7-40.5-3-60.5-5.9c-15-2.2-30.1-4.6-45.1-7.4
		c-38.4-8.8-79.5-16.8-109.2-43.6c-71.4-63-127.9-155.7-231.7-146.7c-140.4,8.8-284.5,13.3-401.1-82.1
		c-18.4-12.3-35.8-24.8-52.1-37.4c-114-88.1-174.6-181.1-158.4-263.4c9.6-49,45.5-89.3,101.9-120.2c14.1-7.7,29.5-14.8,46.1-21.4
		c77.4-29.6,160.1-55.1,242.1-45.9c214.8,23.5,426,11.3,634-43.9c18.8-4.2,37.7-8.3,56.6-12.1c55.5-10.7,120.6-32,167.5,8.7
		c61.7,54.4,121.6,107.2,192.3,148c14.1,8.2,28.7,15.8,43.8,22.9c12.8,4.6,24.7,14,30.1,25.2c21.1,39.7,39.3,87,80.4,94.9
		c39,8.5,76.6,24.6,108.7,47.5c16.1,11.4,30.8,24.6,43.5,39.3c37.3,41.8,57.9,99.7,55.6,158.6C1269.1,833.7,1268.9,848.7,1267,862.1
		"/>
</g>
<g>
	<defs>
		<rect id="SVGID_3_" y="-2.6" width="640" height="1085.2"/>
	</defs>
	<clipPath id="SVGID_4_">
		<use xlink:href="#SVGID_3_"  style="overflow:visible;"/>
	</clipPath>
	<path class="st5" d="M95,685.1c0-218.2,225-578.1,225-578.1s225,359.9,225,578.1c0,128.7-100.7,233.1-225,233.1
		C195.7,918.2,95,813.8,95,685.1"/>
</g>
</svg>
