<?xml version="1.0" encoding="utf-8"?>
<!-- Generator: Adobe Illustrator 21.1.0, SVG Export Plug-In . SVG Version: 6.00 Build 0)  -->
<svg version="1.1" id="Ebene_1" xmlns="http://www.w3.org/2000/svg" xmlns:xlink="http://www.w3.org/1999/xlink" x="0px" y="0px"
	 viewBox="0 0 640 1080" style="enable-background:new 0 0 640 1080;" xml:space="preserve">
<style type="text/css">
	.st0{display:none;}
	.st1{display:inline;fill:none;stroke:#000000;stroke-width:0.25;stroke-miterlimit:10;}
	.st2{clip-path:url(#SVGID_2_);fill:#00E6C7;}
	.st3{clip-path:url(#SVGID_2_);fill:#FC6153;}
</style>
<g id="Ebene_2" class="st0">
	<line class="st1" x1="960" y1="-243" x2="960" y2="1323"/>
	<line class="st1" x1="1743" y1="540" x2="177" y2="540"/>
</g>
<g>
	<defs>
		<polygon id="SVGID_1_" points="258.5,0 0,0.6 0,1080 280.7,1080 640,1080 640,0 		"/>
	</defs>
	<clipPath id="SVGID_2_">
		<use xlink:href="#SVGID_1_"  style="overflow:visible;"/>
	</clipPath>
	<path class="st2" d="M111.3,960.8C-41.2,1377.1-199.6,1783.3-317.6,2223c-28.6,98.8-67,195.3-105.5,291.7
		c42.5-604.6,192.8-1187.5,397.4-1751.6c19.8-61.6,40.5-123,62.3-184.1c21.2-52.2,45.4-104.1,70.7-156.2
		C299.9,22.6,607.6-323.9,627.7-782.9c45.4,196.5,11.4,393.2-61.1,585C522.9-84,474.5,23.5,426.5,128.9
		c-24,52.7-47.9,104.9-71.3,157.4c-36.5,82.8-71.9,166-104.1,250.8c-16.1,42.4-31.3,85.3-45.6,128.9
		c-14.3,43.6-28.1,88.4-41.3,134.7C147.3,853.9,129.7,907.5,111.3,960.8"/>
	<path class="st3" d="M280.1,943.9C182.7,1131.4,94.7,1322-12.9,1501.8c-22.5,39.5-45.2,79.2-68.3,118.8
		c-23.2,39.6-46.8,79.3-71.2,118.9c-75.8,123.2-166.5,232.2-264,334.8c-32.5,34.2-65.9,67.6-100.5,101.1
		c-71.9,69.4-145.4,133.9-219.2,203.1c60.6-75,121.2-150,185.5-225.4c29.1-36.2,57.5-72.3,85.3-108.8
		c83.3-109.6,160.6-223.3,220.8-350.2c22.9-49.1,43.5-99.1,63.1-149.4s37.9-101,56.3-151.6c151-468,406.1-870.7,732.6-1253.3
		c160.1-179.8,339.4-315.5,473.1-506.9C1030-248.9,984.9-139.6,903.6-33.3C709.7,228.4,543.8,483.1,382,759.2
		C346.2,822.8,311.8,885,280.1,943.9"/>
	<path class="st2" d="M377,1122.5c-28.3,57.2-56,114.7-83,172.7c-27,57.9-53.3,116.2-78.8,174.9
		c-160.9,401.3-377,763.1-505.6,1186.8c-30.3,98.3-43.8,187.9-75,281.6c-56.6-506.6,217.4-968.2,374.5-1432.1
		c18.1-42.6,36.6-84.2,55.4-125.2c93.8-204.9,192.8-393.4,265.7-604.3c17.6-47.3,34.8-94.6,51.8-142c16.9-47.4,33.6-94.8,49.9-142.5
		c19.6-57.2,38.8-114.7,57.5-172.8c20.6-67.1,44.4-130.3,62.8-197C620.3-147.8,677-406.1,761.3-665.8
		C701.5-334.7,689,0.1,616.3,327.4c-10.9,53.8-22.2,107.4-34.4,160.8c-18.2,80.1-38,159.7-60.4,238.5c-11.2,39.4-23,78.6-35.7,117.6
		c-12.7,39.1-27.1,78.7-43.2,118.9C422.3,1015.5,400.6,1068.5,377,1122.5"/>
	<path class="st3" d="M714.7,981.1c-39.7,213.6-80.8,423.8-127.2,635.1c-12.8,47.4-24.8,95-36.4,142.8
		c-17.4,71.6-34.1,143.6-52.2,215.3c-18.1,71.7-37.5,143.1-60.4,213.8c-56.6,194.1-128.9,380-217,561
		c46.3-177.4,82.6-356.5,107-537.2c5.4-42.3,10.9-84.6,16.6-126.8c16.9-126.7,35.1-253.2,55.3-379c8-50.5,16.4-100.9,24.8-151.9
		c73.1-440,71.1-887.3,251.3-1314.7C790.5-28.9,907-273.3,981-548.3C959.7-83.6,826.6,358.1,744.2,815
		C734.1,871.8,724.2,927.3,714.7,981.1"/>
	<path class="st2" d="M612.3,820.2c-152.5,416.3-310.9,822.5-428.9,1262.2c-28.6,98.8-67,195.3-105.5,291.7
		c42.5-604.6,192.8-1187.5,397.4-1751.6c19.8-61.6,40.5-123,62.3-184.1c21.2-52.2,51.8-126.7,77.1-178.9
		c192.5-400.1,493.9-724,514-1182.9c45.4,196.5,11.4,393.2-61.1,585c-43.8,113.8-92.1,221.3-140.1,326.7
		c-24,52.7-47.9,104.9-71.3,157.4c-36.5,82.8-71.9,166-104.1,250.8c-16.1,42.4-31.3,85.3-45.6,128.9s-28.1,88.4-41.3,134.7
		C648.4,713.3,630.7,766.9,612.3,820.2"/>
	<path class="st3" d="M-692.8,814.4c-97.5,187.5-185.4,378.1-293.1,557.9c-22.5,39.5-45.2,79.2-68.3,118.8s-46.8,79.3-71.2,118.9
		c-75.8,123.2-166.5,232.2-264,334.8c-32.5,34.2-65.9,67.7-100.5,101.1c-71.9,69.4-145.4,133.9-219.2,203.1
		c60.6-75,121.2-150,185.5-225.4c29.1-36.2,57.5-72.3,85.3-108.8c83.3-109.6,160.6-223.3,220.8-350.2
		c22.9-49.1,43.5-99.1,63.1-149.4s37.9-101,56.3-151.6c151-468,406.1-870.7,732.6-1253.3c160.1-179.8,339.4-315.5,473.1-506.9
		C57.1-378.4,12-269.1-69.3-162.8C-263.2,98.9-429.1,353.6-590.9,629.7C-626.7,693.3-661.1,755.5-692.8,814.4"/>
	<path class="st2" d="M-76.7,667.4c-22.4,90.5-34.1,184.3-40.1,280.9c-20.5,310.8-22.3,619.9-94.7,922.2
		c-16.7,72.4-33.8,138.8-50.2,200.8c-39.8,172-103.8,339.3-146.2,513.7c2.8-234.8,31.5-464,55.9-699c5.3-52.1,9.9-104.2,13.8-156.5
		c19.6-261.2,23.2-524.3,25.8-790.5c1.8-309.1,127.7-578.2,262.2-850.4C17.3-40,54.4-172.7,88.9-307.3
		c15.6-56.4,29.9-108,42.7-153.6c38.4-136.9,63.1-219.8,63.1-219.8s-7.9,121.9-24.9,313.4c-5.7,63.8-12.6,135.2-21.2,211.4
		C133.9,92.2,31.9,317.9-45.8,550.3C-56.8,586.3-67.2,625.2-76.7,667.4"/>
	<path class="st3" d="M257,645.3C213.6,828.1,127.6,990,8.6,1139.1c-357.2,434.1-800.4,751.7-1107.4,1213.6
		c-44.4,61.3-84.9,116.6-120.7,165c-107.6,145.6-173.5,230.4-173.5,230.4s13.3-32.2,38.4-91.1c24.8-58.6,61.5-144.1,109.6-251.3
		c32.9-72,70.8-153.8,115.2-244.5c212.2-451.8,595.9-769.3,886.9-1203.4c59.5-90.7,105.8-175,132.3-272.2
		C1.9,329.1,74.7-33.8,307.1-323.8c57.6-84.3,114.3-165.9,168.3-242.9c161.6-231.7,313.8-458.4,485.8-678.8
		C795.8-889.1,630.4-539.2,459.9-190C427.2-117,398-42.6,373.1,33.2c-49.8,151.5-82.4,308.5-91.4,470.1
		C275.2,550.4,267.3,597.8,257,645.3"/>
</g>
</svg>
