<?xml version="1.0" encoding="utf-8"?>
<!-- Generator: Adobe Illustrator 21.1.0, SVG Export Plug-In . SVG Version: 6.00 Build 0)  -->
<svg version="1.1" id="Ebene_1" xmlns="http://www.w3.org/2000/svg" xmlns:xlink="http://www.w3.org/1999/xlink" x="0px" y="0px"
	 viewBox="0 0 640 1080" style="enable-background:new 0 0 640 1080;" xml:space="preserve">
<style type="text/css">
	.st0{display:none;}
	.st1{display:inline;fill:none;stroke:#000000;stroke-width:0.25;stroke-miterlimit:10;}
	.st2{fill:#00E6C7;}
	.st3{fill:#F1F1F1;}
	.st4{fill:#FC6153;}
</style>
<g id="Ebene_2" class="st0">
	<line class="st1" x1="960" y1="-243" x2="960" y2="1323"/>
	<line class="st1" x1="1743" y1="540" x2="177" y2="540"/>
</g>
<rect class="st2" width="640" height="1078.8"/>
<rect class="st3" width="640" height="1078.8"/>
<polygon class="st2" points="0,115.6 0,887.5 53.9,1080 441.8,1080 17.4,91.4 "/>
<polygon class="st4" points="0,50.7 0,630.7 45.7,728.2 77.5,522.9 289.4,888.9 321.2,777.3 589.9,1080 640,1080 640,1040.1 
	384.8,518.4 289.4,616.6 44.1,36.6 "/>
<polygon class="st2" points="0,6 0,192.7 398.8,585.2 465.9,385.5 640,524.1 640,179.1 481.2,6 "/>
<polygon class="st2" points="640,777.4 640,685.1 508.1,576.8 "/>
<polygon class="st4" points="0,0 0,9.9 392.8,195.7 444.8,121.2 640,195.9 640,75.6 495.7,0 "/>
</svg>
