<?xml version="1.0" encoding="utf-8"?>
<!-- Generator: Adobe Illustrator 16.0.0, SVG Export Plug-In . SVG Version: 6.00 Build 0)  -->
<!DOCTYPE svg PUBLIC "-//W3C//DTD SVG 1.1//EN" "http://www.w3.org/Graphics/SVG/1.1/DTD/svg11.dtd">
<svg version="1.1" id="Layer_1" xmlns="http://www.w3.org/2000/svg" xmlns:xlink="http://www.w3.org/1999/xlink" x="0px" y="0px"
	 width="1616.012px" height="732px" viewBox="0 0 1616.012 732" enable-background="new 0 0 1616.012 732" xml:space="preserve">
<g>
	<path fill="#FFFFFF" d="M797.322,243.165c-16.883,0-28.188-12.048-28.188-27.703c0-15.654,11.307-27.666,28.188-27.666
		c16.844,0,28.109,12.085,28.109,27.666C825.434,231.117,814.166,243.165,797.322,243.165z M797.322,198.17
		c-9.67,0-15.322,6.544-15.322,17.291c0,10.858,5.652,17.291,15.322,17.291c9.594,0,15.246-6.433,15.246-17.291
		C812.568,204.714,806.916,198.17,797.322,198.17z"/>
	<path fill="#FFFFFF" d="M860.322,224.46v18.109h-12.568v-54.18h19.113c15.246,0,21.791,7.696,21.791,17.699
		c0,10.821-6.806,18.37-21.791,18.37L860.322,224.46L860.322,224.46z M860.322,214.978h6.545c6.545,0,9.223-3.272,9.223-8.889
		c0-4.944-2.898-8.292-9.223-8.292h-6.545V214.978z"/>
	<path fill="#FFFFFF" d="M946.451,188.39v9.668h-22.238v12.643h17.031v9.297h-17.031v12.903h22.238v9.668H911.57v-54.18
		L946.451,188.39L946.451,188.39z"/>
	<path fill="#FFFFFF" d="M983.643,190.324l25.732,32.538c-0.185-2.083-0.297-4.054-0.297-5.802v-28.67h11.082v54.18h-6.545
		c-1.936,0-3.162-0.483-4.391-2.082L983.68,208.21c0.148,1.896,0.264,3.72,0.264,5.317v29.042H972.86v-54.18h6.619
		C981.635,188.39,982.268,188.651,983.643,190.324z"/>
</g>
<g>
	<path fill="#FFFFFF" d="M784.529,310.818h2.008c1.858,0,3.199-0.595,4.016-1.747l12.197-17.701c1.34-1.934,2.938-2.491,5.43-2.491
		h10.934l-16.063,21.902c-1.153,1.6-2.381,2.566-3.682,3.272c1.896,0.707,3.42,1.821,4.723,3.866l16.361,25.139h-11.23
		c-2.861,0-3.902-0.818-4.906-2.307L792.041,321.9c-0.893-1.376-2.119-1.896-4.463-1.896h-3.049v23.056h-12.568v-54.181h12.568
		V310.818z"/>
	<path fill="#FFFFFF" d="M855.115,290.812l25.73,32.538c-0.186-2.083-0.297-4.055-0.297-5.803v-28.67h11.082v54.181h-6.545
		c-1.934,0-3.162-0.483-4.389-2.082l-25.547-32.277c0.146,1.897,0.262,3.719,0.262,5.317v29.042H844.33v-54.181h6.619
		C853.107,288.878,853.74,289.139,855.115,290.812z"/>
	<path fill="#FFFFFF" d="M943.775,343.653c-16.885,0-28.188-12.048-28.188-27.703s11.305-27.666,28.188-27.666
		c16.846,0,28.111,12.085,28.111,27.666C971.889,331.605,960.621,343.653,943.775,343.653z M943.775,298.659
		c-9.668,0-15.32,6.544-15.32,17.291c0,10.858,5.652,17.291,15.32,17.291c9.594,0,15.245-6.433,15.245-17.291
		C959.021,305.203,953.369,298.659,943.775,298.659z"/>
	<path fill="#FFFFFF" d="M985.654,288.878h10.56c2.193,0,3.719,1.078,4.164,2.716l7.438,28.261c0.48,1.821,1.041,3.941,1.301,6.21
		c0.482-2.343,1.115-4.389,1.674-6.21l8.775-28.261c0.445-1.377,2.008-2.716,4.092-2.716h3.717c2.195,0,3.607,1.041,4.166,2.716
		l8.701,28.261c0.559,1.748,1.188,3.682,1.637,5.913c0.408-2.194,0.818-4.165,1.265-5.913l7.438-28.261
		c0.408-1.45,2.008-2.716,4.09-2.716h9.895l-16.734,54.181h-11.379l-10.189-33.579c-0.334-1.041-0.741-2.306-1.078-3.682
		c-0.334,1.376-0.743,2.641-1.077,3.682l-10.339,33.579h-11.379L985.654,288.878z"/>
	<path fill="#FFFFFF" d="M1099.826,333.018h20.08v10.04h-32.65v-54.181h12.57V333.018L1099.826,333.018z"/>
	<path fill="#FFFFFF" d="M1181.492,288.878v9.668h-22.236v12.645h17.031v9.297h-17.031v12.903h22.236v9.668h-34.881v-54.181
		H1181.492L1181.492,288.878z"/>
	<path fill="#FFFFFF" d="M1228.947,343.058H1207.9v-54.181h21.047c16.846,0,28.112,11.49,28.112,27.071
		C1257.062,331.605,1245.793,343.058,1228.947,343.058z M1228.947,298.546h-8.404v34.845h8.404c9.594,0,15.246-6.619,15.246-17.44
		C1244.193,305.203,1238.541,298.546,1228.947,298.546z"/>
	<path fill="#FFFFFF" d="M1313.367,332.349v-8.22h-5.355c-1.598,0-2.525-0.93-2.525-2.229v-6.917h19.262v22.869
		c-5.541,4.054-11.898,5.801-20.75,5.801c-15.84,0-27.666-11.825-27.666-27.703c0-16.176,11.156-27.666,28.633-27.666
		c9.074,0,15.806,3.123,20.154,7.288l-3.645,5.541c-0.707,1.041-1.674,1.673-2.824,1.673c-0.744,0-1.525-0.26-2.309-0.743
		c-3.979-2.38-6.768-3.384-11.823-3.384c-9.37,0-15.319,6.916-15.319,17.291c0,11.453,6.692,18.035,15.766,18.035
		C1308.422,333.985,1310.988,333.353,1313.367,332.349z"/>
	<path fill="#FFFFFF" d="M1385.068,288.878v9.668h-22.236v12.645h17.031v9.297h-17.031v12.903h22.236v9.668h-34.882v-54.181
		H1385.068L1385.068,288.878z"/>
</g>
<path fill="#FFFFFF" d="M806.846,389.355v9.67h-22.238v13.724h18.521v9.706h-18.521v21.088h-12.646v-54.188H806.846L806.846,389.355
	z"/>
<path fill="#FFFFFF" d="M889.184,416.432c0,3.916-0.676,7.562-2.025,10.934c-1.354,3.372-3.254,6.305-5.707,8.796
	c-2.455,2.491-5.412,4.442-8.871,5.856c-3.459,1.413-7.295,2.119-11.51,2.119s-8.061-0.706-11.529-2.119
	c-3.471-1.414-6.44-3.365-8.906-5.856c-2.469-2.491-4.377-5.424-5.728-8.796c-1.354-3.371-2.025-7.018-2.025-10.934
	c0-3.918,0.674-7.563,2.025-10.937c1.352-3.371,3.26-6.297,5.728-8.774c2.469-2.479,5.438-4.428,8.906-5.841
	c3.471-1.412,7.314-2.118,11.529-2.118s8.051,0.713,11.51,2.139s6.416,3.379,8.871,5.855c2.453,2.479,4.354,5.405,5.707,8.776
	C888.508,408.906,889.184,412.538,889.184,416.432z M876.316,416.432c0-2.68-0.35-5.091-1.041-7.233
	c-0.695-2.146-1.693-3.962-2.994-5.448c-1.305-1.487-2.896-2.628-4.779-3.422c-1.885-0.793-4.029-1.188-6.434-1.188
	c-2.432,0-4.596,0.396-6.49,1.188c-1.896,0.794-3.496,1.935-4.797,3.422c-1.305,1.486-2.303,3.306-2.994,5.448
	c-0.695,2.146-1.041,4.556-1.041,7.233c0,2.7,0.346,5.125,1.041,7.271c0.691,2.146,1.689,3.961,2.994,5.448
	c1.301,1.486,2.898,2.622,4.797,3.402c1.896,0.78,4.061,1.171,6.49,1.171c2.402,0,4.549-0.391,6.434-1.171s3.476-1.916,4.779-3.402
	c1.301-1.487,2.299-3.305,2.994-5.448C875.969,421.557,876.316,419.133,876.316,416.432z"/>
<path fill="#FFFFFF" d="M940.059,433.612c1.687,0,3.193-0.278,4.521-0.837c1.326-0.559,2.447-1.356,3.365-2.397
	c0.918-1.042,1.615-2.313,2.102-3.813c0.482-1.5,0.725-3.204,0.725-5.113v-32.097h12.57v32.097c0,3.322-0.539,6.372-1.617,9.147
	c-1.078,2.777-2.623,5.17-4.631,7.179s-4.451,3.569-7.326,4.688c-2.877,1.114-6.109,1.673-9.707,1.673
	c-3.617,0-6.865-0.559-9.742-1.673c-2.875-1.116-5.316-2.679-7.326-4.688c-2.008-2.009-3.545-4.399-4.611-7.179
	c-1.066-2.775-1.6-5.825-1.6-9.147v-32.097h12.568v32.06c0,1.909,0.242,3.613,0.729,5.113c0.481,1.501,1.184,2.776,2.102,3.831
	c0.916,1.054,2.039,1.858,3.365,2.417C936.867,433.334,938.373,433.612,940.059,433.612z"/>
<path fill="#FFFFFF" d="M1001.832,389.432c0.373,0.049,0.707,0.143,1.004,0.276c0.299,0.138,0.582,0.329,0.856,0.577
	c0.271,0.248,0.582,0.582,0.93,1.004l25.736,32.541c-0.102-1.041-0.176-2.051-0.225-3.031c-0.051-0.979-0.076-1.9-0.076-2.771
	v-28.674h11.084v54.186h-6.545c-0.969,0-1.785-0.147-2.455-0.445s-1.313-0.843-1.934-1.638l-25.551-32.279
	c0.074,0.941,0.137,1.864,0.186,2.77c0.051,0.906,0.076,1.755,0.076,2.548v29.046h-11.084v-54.186h6.621
	C1001.002,389.355,1001.461,389.381,1001.832,389.432z"/>
<path fill="#FFFFFF" d="M1121.547,416.432c0,3.916-0.676,7.529-2.026,10.841c-1.353,3.311-3.255,6.174-5.709,8.591
	c-2.452,2.417-5.409,4.302-8.868,5.651c-3.459,1.354-7.296,2.027-11.512,2.027h-21.051v-54.188h21.051
	c4.216,0,8.053,0.684,11.512,2.047s6.416,3.248,8.868,5.652c2.454,2.403,4.356,5.262,5.709,8.571
	C1120.871,408.936,1121.547,412.538,1121.547,416.432z M1108.68,416.432c0-2.68-0.348-5.098-1.043-7.252
	c-0.691-2.158-1.689-3.986-2.99-5.486c-1.305-1.5-2.896-2.652-4.779-3.459c-1.885-0.805-4.029-1.209-6.436-1.209h-8.404v34.848
	h8.404c2.404,0,4.551-0.401,6.436-1.208c1.883-0.806,3.477-1.958,4.779-3.459c1.301-1.5,2.299-3.327,2.99-5.484
	C1108.332,421.562,1108.68,419.133,1108.68,416.432z"/>
<path fill="#FFFFFF" d="M1200.313,443.543h-9.743c-1.091,0-1.988-0.255-2.695-0.764c-0.707-0.508-1.197-1.158-1.469-1.952
	l-3.199-9.445h-20.604l-3.196,9.445c-0.248,0.694-0.732,1.32-1.451,1.878c-0.719,0.559-1.601,0.838-2.642,0.838h-9.817
	l20.977-54.188h12.867L1200.313,443.543z M1165.506,422.827h14.801l-4.982-14.839c-0.322-0.942-0.699-2.053-1.134-3.328
	c-0.437-1.277-0.86-2.659-1.282-4.146c-0.396,1.512-0.809,2.913-1.229,4.201c-0.421,1.289-0.814,2.405-1.188,3.348L1165.506,422.827
	z"/>
<path fill="#FFFFFF" d="M1266.363,389.355v9.968h-15.246v44.22h-12.57v-44.22h-15.248v-9.968H1266.363z"/>
<path fill="#FFFFFF" d="M1307.646,443.543H1295v-54.188h12.646V443.543z"/>
<path fill="#FFFFFF" d="M1393.479,416.432c0,3.916-0.677,7.562-2.026,10.934c-1.354,3.372-3.254,6.305-5.709,8.796
	s-5.41,4.442-8.869,5.856c-3.459,1.413-7.297,2.119-11.512,2.119s-8.059-0.706-11.527-2.119c-3.473-1.414-6.44-3.365-8.908-5.856
	c-2.467-2.491-4.375-5.424-5.727-8.796c-1.354-3.371-2.027-7.018-2.027-10.934c0-3.918,0.677-7.563,2.027-10.937
	c1.352-3.371,3.26-6.297,5.727-8.774c2.469-2.479,5.438-4.428,8.908-5.841c3.471-1.412,7.313-2.118,11.527-2.118
	s8.053,0.713,11.512,2.139s6.414,3.379,8.869,5.855c2.455,2.479,4.356,5.405,5.709,8.776
	C1392.805,408.906,1393.479,412.538,1393.479,416.432z M1380.611,416.432c0-2.68-0.35-5.091-1.041-7.233
	c-0.693-2.146-1.691-3.962-2.994-5.448c-1.302-1.487-2.896-2.628-4.777-3.422c-1.885-0.793-4.029-1.188-6.436-1.188
	c-2.432,0-4.594,0.396-6.488,1.188c-1.896,0.794-3.496,1.935-4.799,3.422c-1.302,1.486-2.299,3.306-2.992,5.448
	c-0.695,2.146-1.043,4.556-1.043,7.233c0,2.7,0.348,5.125,1.043,7.271c0.693,2.146,1.691,3.961,2.992,5.448
	c1.303,1.486,2.9,2.622,4.799,3.402c1.896,0.78,4.059,1.171,6.488,1.171c2.404,0,4.551-0.391,6.436-1.171
	c1.883-0.78,3.479-1.916,4.777-3.402c1.303-1.487,2.301-3.305,2.994-5.448C1380.264,421.557,1380.611,419.133,1380.611,416.432z"/>
<path fill="#FFFFFF" d="M1429.813,389.432c0.37,0.049,0.704,0.143,1.005,0.276c0.297,0.138,0.582,0.329,0.854,0.577
	s0.582,0.582,0.931,1.004l25.733,32.541c-0.1-1.041-0.174-2.051-0.223-3.031c-0.052-0.979-0.074-1.9-0.074-2.771v-28.674h11.082
	v54.186h-6.545c-0.967,0-1.785-0.147-2.455-0.445c-0.668-0.298-1.313-0.843-1.934-1.638l-25.551-32.279
	c0.074,0.941,0.137,1.864,0.188,2.77c0.049,0.906,0.074,1.755,0.074,2.548v29.046h-11.082v-54.186h6.618
	C1428.982,389.355,1429.441,389.381,1429.813,389.432z"/>
<rect x="548.279" y="38.312" transform="matrix(0.8011 0.5985 -0.5985 0.8011 186.1158 -309.5224)" fill="#FFFFFF" width="21.011" height="173.937"/>
<rect x="482.274" y="95.412" transform="matrix(0.8951 0.4459 -0.4459 0.8951 112.9308 -205.3307)" fill="#FFFFFF" width="21.016" height="83.788"/>
<rect x="446.232" y="31.704" transform="matrix(0.9603 0.2789 -0.2789 0.9603 45.3377 -123.5178)" fill="#FFFFFF" width="21.019" height="131.73"/>
<polygon fill="#FFFFFF" points="411.174,154.535 390.269,152.372 398.88,69.057 419.792,71.222 "/>
<polygon fill="#FFFFFF" points="351.876,153.726 344.705,60.146 365.658,58.544 372.83,152.122 "/>
<polygon fill="#FFFFFF" points="314.347,161.911 298.078,99.771 318.407,94.448 334.665,156.589 "/>
<rect x="257.781" y="142.218" transform="matrix(0.4219 0.9066 -0.9066 0.4219 299.9255 -164.9476)" fill="#FFFFFF" width="43.057" height="21.003"/>
<polygon fill="#FFFFFF" points="246.613,197.528 236.875,183.734 254.04,171.612 263.771,185.407 "/>
<polygon fill="#FFFFFF" points="218.593,223.811 169.313,175.43 184.031,160.431 233.313,208.81 "/>
<polygon fill="#FFFFFF" points="195.712,254.668 119.461,202.38 131.27,185.002 207.521,237.29 "/>
<polygon fill="#FFFFFF" points="178.712,289.113 130.694,267.831 139.21,248.623 187.231,269.907 "/>
<polygon fill="#FFFFFF" points="25.915,291.59 168.145,326.049 173.089,305.627 30.865,271.172 "/>
<rect x="58.758" y="340.182" transform="matrix(0.9983 0.0581 -0.0581 0.9983 20.5658 -5.9095)" fill="#FFFFFF" width="106.287" height="21.018"/>
<rect x="104.206" y="346.59" transform="matrix(0.1209 0.9927 -0.9927 0.1209 496.3169 236.3614)" fill="#FFFFFF" width="21.01" height="103.613"/>
<rect x="152.156" y="421.19" transform="matrix(0.2964 0.9551 -0.9551 0.2964 528.2199 149.4773)" fill="#FFFFFF" width="21.011" height="24.091"/>
<rect x="139.564" y="441.679" transform="matrix(0.462 0.8869 -0.8869 0.462 511.115 127.9827)" fill="#FFFFFF" width="21.015" height="87.169"/>
<rect x="161.798" y="479.267" transform="matrix(0.613 0.7901 -0.7901 0.613 482.4701 67.5298)" fill="#FFFFFF" width="21.01" height="93.978"/>
<rect x="194.498" y="513.852" transform="matrix(0.7443 0.6678 -0.6678 0.7443 426.1665 6.188)" fill="#FFFFFF" width="21.009" height="91.6"/>
<rect x="244.691" y="545.392" transform="matrix(0.8516 0.5242 -0.5242 0.8516 334.8535 -49.6982)" fill="#FFFFFF" width="21.016" height="42.288"/>
<polygon fill="#FFFFFF" points="280.483,646.164 260.911,638.519 290.855,561.831 310.427,569.477 "/>
<rect x="319.744" y="575.676" transform="matrix(0.9815 0.1916 -0.1916 0.9815 123.6688 -51.9145)" fill="#FFFFFF" width="21.012" height="75.555"/>
<polygon fill="#FFFFFF" points="385.456,633.026 364.445,632.745 365.143,580.202 386.153,580.477 "/>
<polygon fill="#FFFFFF" points="420.361,679.378 403.547,579.165 424.273,575.685 441.084,675.896 "/>
<rect x="430.777" y="586.125" transform="matrix(0.3389 0.9408 -0.9408 0.3389 866.3998 -39.7289)" fill="#FFFFFF" width="61.383" height="21.006"/>
<polygon fill="#FFFFFF" points="476.742,556.832 552.953,686.815 571.137,676.273 494.921,546.298 "/>
<polygon fill="#FFFFFF" points="521.201,548.627 509.587,536.705 524.771,522.177 536.39,534.095 "/>
<polygon fill="#FFFFFF" points="589.805,553.132 537.415,510.203 550.737,493.949 603.128,536.875 "/>
<polygon fill="#FFFFFF" points="614.066,509.247 560.56,479.531 570.756,461.161 624.269,490.873 "/>
<polygon fill="#FFFFFF" points="603.69,453.999 577.841,445.219 584.599,425.32 610.44,434.098 "/>
<rect x="589.813" y="393.525" transform="matrix(0.9891 0.1474 -0.1474 0.9891 66.4414 -88.5566)" fill="#FFFFFF" width="81.878" height="21.013"/>
<polygon fill="#FFFFFF" points="592.856,370.18 592.188,349.177 644.152,347.535 644.822,368.543 "/>
<rect x="609.484" y="281.833" transform="matrix(0.2096 0.9778 -0.9778 0.2096 797.7236 -357.4922)" fill="#FFFFFF" width="21.015" height="65.716"/>
<polygon fill="#FFFFFF" points="580.549,294.647 572.546,275.221 614,258.147 621.997,277.569 "/>
<polygon fill="#FFFFFF" points="564.502,259.746 553.163,242.053 662.887,171.689 674.232,189.381 "/>
<polygon fill="#FFFFFF" points="542.484,228.262 528.166,212.89 544.743,197.449 559.054,212.824 "/>
<g>
	<path fill="#FFFFFF" d="M362.427,350.361c-1.681-1.937-3.735-3.424-6.168-4.465c-2.433-1.039-5.201-1.561-8.305-1.561h-10.848
		v44.978h10.848c3.103,0,5.872-0.521,8.305-1.562c2.433-1.039,4.487-2.526,6.168-4.464c1.682-1.937,2.968-4.296,3.863-7.08
		c0.895-2.784,1.345-5.92,1.345-9.408c0-3.455-0.449-6.575-1.345-9.358C365.395,354.657,364.106,352.298,362.427,350.361z"/>
	<path fill="#FFFFFF" d="M510.696,370.529l-0.473-15.396l-46.673,1.428l45.668-9.732l-3.211-15.064l-45.689,9.736l43.215-17.733
		l-5.85-14.25l-43.175,17.718l39.321-25.136l-8.297-12.979l-39.358,25.159l34.235-31.78l-10.479-11.289l-34.229,31.776
		l28.008-37.371l-12.326-9.236l-28.007,37.371l20.887-41.768l-13.773-6.89l-20.891,41.772l13.102-44.829l-14.785-4.32l-13.1,44.831
		l4.891-46.443l-15.318-1.613l-5.062,48.084l-3.774-48.202l-15.354,1.203l3.644,46.543l-11.888-45.143l-14.896,3.922l11.896,45.167
		l-19.763-42.318l-13.955,6.519l19.759,42.309L308,254.467l-12.568,8.902l27.004,38.123l-33.374-32.688l-10.777,11.004
		l33.353,32.669l-38.647-26.196l-8.643,12.75l38.665,26.206l-42.721-18.884l-6.227,14.088l42.719,18.883l-45.405-10.954
		l-3.611,14.973l45.392,10.951l-46.613-2.676l-0.883,15.377l46.635,2.677l-46.363,5.688l1.875,15.287l46.373-5.689l-44.612,13.874
		l4.574,14.707l44.587-13.866l-41.396,21.603l7.125,13.655l41.397-21.603l-36.878,28.643l9.447,12.164l36.88-28.646l-31.178,34.768
		l11.467,10.282l31.17-34.76l-24.471,39.767l13.117,8.071l24.482-39.785l-16.987,43.513l14.348,5.603l16.987-43.514l-8.95,45.846
		l15.117,2.95l8.946-45.825l-0.622,46.688l15.398,0.205l0.623-46.721l7.726,46.082l15.189-2.547l-7.718-46.046l15.809,43.927
		l14.492-5.217l-15.813-43.942l23.401,40.415l13.33-7.719l-23.396-40.402l30.229,35.582l11.738-9.973l-30.24-35.595l36.103,29.62
		l9.77-11.907l-36.125-29.642l40.836,22.721l7.488-13.459l-40.798-22.698l44.19,15.053l4.969-14.58l-44.217-15.061l46.195,6.928
		l2.285-15.231l-46.21-6.932L510.696,370.529z M381.626,380.793c-1.744,4.271-4.199,7.969-7.367,11.088
		c-3.168,3.12-6.982,5.554-11.448,7.297c-4.464,1.744-9.415,2.615-14.854,2.615h-27.168v-69.936h27.168
		c5.438,0,10.393,0.88,14.854,2.64c4.466,1.76,8.28,4.192,11.448,7.296c3.168,3.104,5.623,6.792,7.367,11.064
		c1.744,4.271,2.616,8.92,2.616,13.942C384.242,371.857,383.37,376.521,381.626,380.793z M437.042,344.337h-28.704v16.32h21.984v12
		h-21.984v16.655h28.704v12.479h-45.024v-69.936h45.024V344.337z"/>
</g>
<g>
	<path fill="#FFFFFF" d="M816.795,505.15c0,3.972-0.629,7.585-1.887,10.842c-1.258,3.256-3.035,6.043-5.328,8.361
		c-2.295,2.318-5.045,4.113-8.252,5.384c-3.206,1.271-6.758,1.905-10.655,1.905h-19.832v-53.021h19.832
		c3.897,0,7.449,0.637,10.655,1.906c3.207,1.271,5.957,3.07,8.252,5.402c2.293,2.33,4.07,5.124,5.328,8.38
		S816.795,501.18,816.795,505.15z M809.432,505.15c0-3.256-0.442-6.166-1.332-8.731c-0.889-2.564-2.146-4.735-3.772-6.513
		c-1.629-1.774-3.603-3.132-5.92-4.069c-2.319-0.938-4.896-1.405-7.733-1.405h-12.617v41.402h12.617
		c2.837,0,5.414-0.469,7.733-1.405c2.317-0.938,4.291-2.287,5.92-4.052c1.627-1.764,2.885-3.929,3.772-6.493
		C808.988,511.318,809.432,508.406,809.432,505.15z"/>
	<path fill="#FFFFFF" d="M881.137,478.621v5.848H855.68v17.611h20.609v5.623H855.68v18.095h25.457v5.846h-32.672v-53.021
		L881.137,478.621L881.137,478.621z"/>
	<path fill="#FFFFFF" d="M933.973,525.944c2.195,0,4.156-0.37,5.884-1.11c1.727-0.738,3.188-1.774,4.385-3.106
		c1.195-1.332,2.108-2.923,2.738-4.773c0.629-1.85,0.942-3.885,0.942-6.104v-32.229h7.142v32.229c0,3.059-0.488,5.896-1.462,8.51
		c-0.975,2.615-2.368,4.878-4.182,6.79c-1.813,1.912-4.027,3.41-6.641,4.495c-2.615,1.085-5.552,1.628-8.808,1.628
		s-6.19-0.543-8.807-1.628s-4.834-2.583-6.66-4.495c-1.824-1.912-3.225-4.175-4.199-6.79c-0.975-2.614-1.461-5.451-1.461-8.51
		v-32.229h7.142v32.19c0,2.22,0.313,4.255,0.942,6.104c0.629,1.852,1.541,3.441,2.738,4.773c1.195,1.332,2.664,2.375,4.402,3.127
		C929.811,525.568,931.777,525.944,933.973,525.944z"/>
	<path fill="#FFFFFF" d="M1025.397,478.621v6.031h-17.131v46.99h-7.178v-46.99h-17.205v-6.031H1025.397L1025.397,478.621z"/>
	<path fill="#FFFFFF" d="M1082.01,486.91c-0.223,0.369-0.457,0.646-0.703,0.832c-0.248,0.187-0.567,0.277-0.963,0.277
		c-0.42,0-0.905-0.209-1.461-0.629c-0.555-0.419-1.258-0.882-2.108-1.388c-0.853-0.506-1.875-0.969-3.07-1.389
		c-1.197-0.419-2.646-0.629-4.348-0.629c-1.604,0-3.023,0.217-4.257,0.648s-2.264,1.017-3.09,1.757
		c-0.826,0.739-1.448,1.609-1.866,2.607c-0.421,0.999-0.63,2.078-0.63,3.238c0,1.479,0.363,2.707,1.091,3.682
		c0.729,0.975,1.688,1.808,2.887,2.496c1.194,0.691,2.553,1.289,4.069,1.796c1.518,0.506,3.07,1.029,4.662,1.571
		c1.59,0.543,3.146,1.154,4.662,1.832c1.517,0.68,2.873,1.535,4.07,2.571c1.194,1.036,2.157,2.307,2.885,3.812
		c0.729,1.505,1.092,3.354,1.092,5.55c0,2.318-0.395,4.495-1.184,6.53s-1.943,3.806-3.459,5.311
		c-1.519,1.505-3.381,2.688-5.588,3.552s-4.718,1.295-7.529,1.295c-3.43,0-6.555-0.623-9.379-1.868
		c-2.826-1.245-5.236-2.929-7.234-5.051l2.072-3.403c0.197-0.271,0.438-0.5,0.721-0.686c0.283-0.185,0.599-0.277,0.943-0.277
		c0.52,0,1.11,0.277,1.776,0.833s1.498,1.165,2.498,1.831c0.998,0.666,2.207,1.277,3.625,1.832c1.418,0.556,3.15,0.832,5.199,0.832
		c1.701,0,3.219-0.233,4.551-0.703c1.332-0.468,2.462-1.128,3.386-1.979c0.926-0.853,1.635-1.869,2.127-3.054
		c0.494-1.185,0.739-2.504,0.739-3.959c0-1.604-0.362-2.916-1.092-3.94c-0.727-1.023-1.684-1.881-2.867-2.57
		c-1.184-0.69-2.532-1.276-4.051-1.758c-1.518-0.48-3.069-0.975-4.662-1.479c-1.592-0.506-3.145-1.093-4.662-1.759
		c-1.517-0.666-2.866-1.528-4.051-2.59c-1.186-1.061-2.141-2.387-2.867-3.977c-0.729-1.592-1.092-3.56-1.092-5.902
		c0-1.874,0.363-3.688,1.092-5.438c0.728-1.75,1.781-3.306,3.162-4.662c1.381-1.355,3.09-2.441,5.125-3.256
		c2.035-0.813,4.371-1.222,7.013-1.222c2.959,0,5.659,0.469,8.104,1.406c2.441,0.938,4.574,2.294,6.4,4.07L1082.01,486.91z"/>
	<path fill="#FFFFFF" d="M1153.344,520.69c0.396,0,0.752,0.161,1.074,0.481l2.812,3.069c-2.171,2.518-4.804,4.479-7.898,5.884
		c-3.096,1.405-6.826,2.108-11.193,2.108c-3.821,0-7.289-0.66-10.396-1.979c-3.107-1.319-5.76-3.169-7.955-5.551
		c-2.195-2.381-3.897-5.234-5.104-8.564c-1.209-3.33-1.813-6.993-1.813-10.989s0.646-7.658,1.941-10.988s3.112-6.19,5.457-8.584
		c2.344-2.393,5.149-4.249,8.418-5.567c3.268-1.32,6.875-1.98,10.821-1.98c3.898,0,7.259,0.605,10.084,1.813
		c2.822,1.208,5.332,2.849,7.529,4.921l-2.332,3.293c-0.172,0.246-0.369,0.45-0.592,0.609c-0.224,0.161-0.543,0.241-0.963,0.241
		c-0.32,0-0.66-0.117-1.017-0.352c-0.358-0.234-0.785-0.524-1.276-0.87c-0.494-0.345-1.072-0.715-1.738-1.11
		c-0.666-0.395-1.457-0.764-2.369-1.108c-0.912-0.346-1.973-0.636-3.182-0.869c-1.209-0.234-2.604-0.353-4.183-0.353
		c-2.836,0-5.432,0.486-7.787,1.461c-2.356,0.976-4.385,2.362-6.088,4.162c-1.701,1.802-3.026,3.996-3.977,6.586
		c-0.95,2.591-1.426,5.489-1.426,8.695c0,3.306,0.477,6.254,1.426,8.844c0.949,2.591,2.244,4.779,3.885,6.566
		c1.641,1.789,3.582,3.152,5.828,4.089c2.244,0.938,4.662,1.406,7.252,1.406c1.578,0,2.996-0.093,4.254-0.277
		c1.258-0.184,2.424-0.476,3.496-0.87c1.074-0.395,2.072-0.894,2.998-1.498c0.924-0.604,1.855-1.325,2.793-2.164
		C1152.543,520.875,1152.949,520.69,1153.344,520.69z"/>
	<path fill="#FFFFFF" d="M1231.562,531.643h-7.215v-24.124h-28.563v24.124h-7.215v-53.021h7.215v23.645h28.563v-23.645h7.215
		V531.643z"/>
	<path fill="#FFFFFF" d="M1273.594,525.611h22.941v6.031h-30.119v-53.021h7.178V525.611z"/>
	<path fill="#FFFFFF" d="M1369.979,531.643h-5.55c-0.643,0-1.159-0.16-1.555-0.48c-0.396-0.319-0.691-0.729-0.889-1.222
		l-4.957-12.802h-23.791l-4.959,12.802c-0.173,0.444-0.47,0.839-0.888,1.186c-0.42,0.346-0.938,0.518-1.555,0.518h-5.551
		l21.201-53.021h7.289L1369.979,531.643z M1335.236,511.96h19.795l-8.326-21.571c-0.543-1.332-1.072-2.997-1.59-4.995
		c-0.271,1.012-0.537,1.942-0.797,2.793c-0.259,0.852-0.513,1.598-0.759,2.239L1335.236,511.96z"/>
	<path fill="#FFFFFF" d="M1403.703,478.862c0.309,0.161,0.66,0.487,1.055,0.98l30.711,39.96c-0.073-0.642-0.125-1.265-0.147-1.869
		c-0.025-0.604-0.037-1.189-0.037-1.757V478.62h6.289v53.021h-3.625c-0.568,0-1.043-0.099-1.426-0.296
		c-0.381-0.197-0.759-0.53-1.127-0.999l-30.674-39.923c0.049,0.615,0.086,1.221,0.11,1.813c0.023,0.592,0.037,1.135,0.037,1.627
		v37.777h-6.291v-53.021h3.701C1402.92,478.621,1403.396,478.702,1403.703,478.862z"/>
	<path fill="#FFFFFF" d="M1522.381,505.15c0,3.972-0.629,7.585-1.887,10.842c-1.258,3.256-3.033,6.043-5.328,8.361
		s-5.045,4.113-8.252,5.384c-3.205,1.271-6.758,1.905-10.654,1.905h-19.832v-53.021h19.832c3.896,0,7.449,0.637,10.654,1.906
		c3.207,1.271,5.957,3.07,8.252,5.402c2.295,2.33,4.07,5.124,5.328,8.38S1522.381,501.18,1522.381,505.15z M1515.018,505.15
		c0-3.256-0.442-6.166-1.332-8.731c-0.887-2.564-2.146-4.735-3.772-6.513c-1.629-1.774-3.603-3.132-5.92-4.069
		c-2.318-0.938-4.896-1.405-7.732-1.405h-12.617v41.402h12.617c2.836,0,5.414-0.469,7.732-1.405c2.318-0.938,4.291-2.287,5.92-4.052
		c1.627-1.764,2.887-3.929,3.772-6.493C1514.574,511.317,1515.018,508.406,1515.018,505.15z"/>
</g>
</svg>
