<?xml version="1.0" encoding="utf-8"?>
<!-- Generator: Adobe Illustrator 16.0.0, SVG Export Plug-In . SVG Version: 6.00 Build 0)  -->
<!DOCTYPE svg PUBLIC "-//W3C//DTD SVG 1.1//EN" "http://www.w3.org/Graphics/SVG/1.1/DTD/svg11.dtd">
<svg version="1.1" id="svg2833" xmlns:svg="http://www.w3.org/2000/svg"
	 xmlns="http://www.w3.org/2000/svg" xmlns:xlink="http://www.w3.org/1999/xlink" x="0px" y="0px" width="979.016px"
	 height="389.764px" viewBox="0 0 979.016 389.764" enable-background="new 0 0 979.016 389.764" xml:space="preserve">
<g id="layer1" transform="translate(49.414484,-266.27881)">
	<g id="g2968" transform="translate(17.715237,17.716527)">
		<path id="path32" fill="#FFFFFF" d="M199.972,447.071c0,5.457-3.582,7.546-6.447,7.546c-3.701,0-5.611-2.612-5.611-6.616v-22.752
			h-5.252v25.016c0,5.629,3.104,8.473,8.834,8.473c3.462,0,6.566-1.625,8.357-4.584h0.119v3.945h5.73
			c-0.239-2.263-0.358-4.584-0.358-6.848v-26.002h-5.372V447.071"/>
		<path id="path34" fill="#FFFFFF" d="M238.054,458.098v-22.75c0-6.5-1.671-10.737-8.714-10.737c-4.298,0-6.686,1.161-8.834,4.875
			h-0.239v-4.237h-5.611c0.12,2.322,0.239,4.585,0.239,6.849v26.001h5.372v-19.442c0-4.469,0.835-9.693,6.685-9.693
			c4.537,0,5.85,2.844,5.85,6.385v22.75H238.054"/>
		<path id="path36" fill="#FFFFFF" d="M264.319,428.557h-0.239c-1.791-2.554-4.059-3.946-7.163-3.946
			c-10.625,0-10.863,9.402-10.863,17.644c0,14.394,5.253,16.483,10.506,16.483c3.462,0,5.729-1.508,7.64-4.527h0.12v3.889h5.252
			v-46.953h-5.252V428.557z M264.319,440.339c0,6.617,0,14.045-5.97,14.045c-6.686,0-6.686-7.139-6.686-12.072
			c0-8.764,0.717-13.349,6.447-13.349C264.079,428.963,264.319,435.986,264.319,440.339"/>
		<path id="path38" fill="#FFFFFF" d="M285.926,443.531c0,3.772,0,7.777,1.91,10.911c2.269,3.715,7.282,4.644,9.908,4.644
			c12.774,0,12.894-10.099,12.894-12.652v-35.288h-5.969v31.748c0,5.688-0.358,11.143-6.805,11.143
			c-6.089,0-5.611-6.268-5.73-10.504H285.926"/>
		<path id="path40" fill="#FFFFFF" d="M338.095,447.071c0,5.457-3.581,7.546-6.446,7.546c-3.82,0-5.61-2.612-5.61-6.616v-22.752
			h-5.372v25.016c0,5.629,3.104,8.473,8.834,8.473c3.462,0,6.565-1.625,8.356-4.584h0.238v3.945h5.611
			c-0.239-2.263-0.358-4.584-0.358-6.848v-26.002h-5.253V447.071"/>
		<path id="path42" fill="#FFFFFF" d="M369.732,429.312h-0.12c-1.552-3.192-4.297-4.701-7.64-4.701
			c-2.746,0-10.387,0.986-10.387,16.077c0,9.751,1.791,17.411,10.744,17.411c2.865,0,5.85-1.508,7.163-4.12h0.239v6.849
			c0,3.366-2.03,5.63-5.73,5.63c-2.984,0-4.895-1.683-5.015-4.759h-5.969c-0.478,6.094,4.417,8.822,9.909,8.822
			c7.282,0,12.177-1.742,12.177-9.113v-36.158h-5.372V429.312z M369.851,441.5c0,4.585,0.238,12.188-6.208,12.188
			c-3.939,0-6.446-2.496-6.446-13.001c0-4.353,0.238-11.666,6.327-11.666C370.209,429.021,369.851,436.624,369.851,441.5"/>
		<path id="path44" fill="#FFFFFF" d="M407.933,443.415v-2.786c0-10.854-2.388-16.019-11.699-16.019
			c-11.46,0-12.535,7.951-12.535,17.528c0,14.51,5.492,16.599,12.535,16.599c6.805,0,11.342-3.308,11.342-10.563h-5.851
			c-0.119,3.309-2.029,6.21-5.729,6.21c-4.06,0-6.566-1.8-6.566-10.969H407.933z M389.429,439.352
			c0-9.054,2.865-10.679,6.208-10.679c3.939,0,6.566,1.161,6.566,10.679H389.429"/>
		<path id="path46" fill="#FFFFFF" d="M439.569,458.098v-22.75c0-6.5-1.79-10.737-8.834-10.737c-4.178,0-6.686,1.161-8.715,4.875
			h-0.238v-4.237h-5.73c0.238,2.322,0.358,4.585,0.358,6.849v26.001h5.372v-19.442c0-4.469,0.836-9.693,6.686-9.693
			c4.536,0,5.729,2.844,5.729,6.385v22.75H439.569"/>
		<path id="path48" fill="#FFFFFF" d="M465.713,428.557h-0.119c-1.91-2.554-4.179-3.946-7.282-3.946
			c-10.625,0-10.863,9.402-10.863,17.644c0,14.394,5.372,16.483,10.624,16.483c3.463,0,5.73-1.508,7.521-4.527h0.119v3.889h5.372
			v-46.953h-5.372V428.557z M465.713,440.339c0,6.617,0,14.045-5.969,14.045c-6.686,0-6.686-7.139-6.686-12.072
			c0-8.764,0.836-13.349,6.566-13.349C465.475,428.963,465.713,435.986,465.713,440.339"/>
		<path id="path50" fill="#FFFFFF" d="M180.274,355.601v4.063h5.133v28.788h5.253v-28.788h6.685v-4.063h-6.685v-5.572
			c0-2.67,0.955-5.049,6.685-4.701v-3.831c-0.835-0.116-1.433-0.174-2.507-0.174c-4.775,0-9.431,1.277-9.431,7.951v6.326H180.274"/>
		<path id="path52" fill="#FFFFFF" d="M220.028,377.424c0,5.456-3.582,7.545-6.447,7.545c-3.82,0-5.611-2.612-5.611-6.617v-22.751
			h-5.372v25.015c0,5.63,3.104,8.474,8.834,8.474c3.462,0,6.566-1.625,8.357-4.585h0.239v3.947h5.611
			c-0.239-2.264-0.358-4.585-0.358-6.849v-26.002h-5.252V377.424z M222.774,343.355h-6.088v6.732h6.088V343.355z M211.313,343.355
			h-6.088v6.732h6.088V343.355"/>
		<path id="path54" fill="#FFFFFF" d="M240.442,355.601h-5.252v32.851h5.252v-19.385c0-4.411,1.553-8.88,7.402-8.88
			c1.074,0,1.91,0.174,2.864,0.29v-5.514c-5.133,0-7.879,0.58-10.146,5.572h-0.12V355.601"/>
		<path id="path56" fill="#FFFFFF" d="M273.868,388.452v-21.475h16.355v-5.166h-16.355v-15.09h17.311v-5.224H267.9v46.954H273.868"
			/>
		<path id="path58" fill="#FFFFFF" d="M311.474,388.452h5.85c-0.358-2.554-0.598-5.224-0.598-7.835V364.83
			c0-5.514-2.268-9.867-10.624-9.867c-7.044,0-10.864,2.554-11.103,9.867h5.729c-0.357-3.424,1.553-5.804,5.134-5.804
			c5.73,0,5.611,4.701,5.491,9.054c-7.401-0.174-17.19,0.291-17.19,10.215c0,6.326,2.029,10.795,8.953,10.795
			c4.179,0,6.686-1.625,8.237-5.397h0.12V388.452z M311.354,372.143c0.598,10.563-3.462,12.595-6.685,12.595
			c-3.582,0-5.134-2.844-5.134-6.036C299.535,371.737,306.34,372.201,311.354,372.143"/>
		<path id="path60" fill="#FFFFFF" d="M348.242,388.452v-22.113c0-1.219,0.239-4.469,1.791-5.804
			c1.433-1.161,2.029-1.219,4.059-1.219c4.298,0,5.253,3.076,5.253,6.384v22.751h5.253v-24.957c0-7.719-5.491-8.532-8.953-8.532
			c-2.985,0-5.97,0.696-7.76,4.237c-1.194-3.018-4.656-4.237-7.641-4.237c-3.939,0-6.686,1.219-8.237,4.759h-0.119v-4.121h-5.611
			c0.119,2.322,0.239,4.585,0.239,6.849v26.002h5.372v-22.113c0-1.219,0.238-3.192,1.193-4.817c0.836-1.219,2.984-2.206,4.656-2.206
			c4.298,0,5.133,3.076,5.133,6.384v22.751H348.242"/>
		<path id="path62" fill="#FFFFFF" d="M373.909,347.244h5.97v-5.746h-5.97V347.244z M379.64,355.601h-5.372v32.851h5.372V355.601"/>
		<path id="path64" fill="#FFFFFF" d="M389.31,388.452h5.372v-46.954h-5.372V388.452z"/>
		<path id="path66" fill="#FFFFFF" d="M404.112,347.244h5.97v-5.746h-5.97V347.244z M409.724,355.601h-5.372v32.851h5.372V355.601"
			/>
		<path id="path68" fill="#FFFFFF" d="M441.956,373.768v-2.786c0-10.853-2.268-16.019-11.699-16.019
			c-11.341,0-12.415,7.951-12.415,17.528c0,14.51,5.491,16.599,12.415,16.599c6.925,0,11.342-3.308,11.461-10.563h-5.85
			c-0.239,3.308-2.149,6.21-5.73,6.21c-4.179,0-6.686-1.799-6.686-10.97H441.956z M423.452,369.705
			c0.12-9.054,2.865-10.68,6.327-10.68c3.82,0,6.566,1.161,6.566,10.68H423.452"/>
		<path id="path70" fill="#FFFFFF" d="M448.045,396.694h4.178l5.85-15.032h-6.685L448.045,396.694"/>
		<path id="path72" fill="#FFFFFF" d="M473.354,374.464c-0.119,4.469-0.119,15.09,13.729,14.975c7.76,0,14.564-3.192,14.564-13.059
			c0-14.916-21.13-13.407-21.13-23.738c0-5.107,3.7-6.907,7.282-6.907c5.61,0,7.282,3.366,7.162,8.532h6.328
			c0.357-9.577-4.418-13.756-13.013-13.756c-7.88,0-13.849,4.469-13.849,12.769c0,14.104,21.131,12.943,21.131,23.332
			c0,5.572-3.701,7.604-8.477,7.604c-3.82,0-7.76-2.031-7.76-8.358v-1.393H473.354"/>
		<path id="path74" fill="#FFFFFF" d="M532.567,373.768v-2.786c0-10.853-2.269-16.019-11.58-16.019
			c-11.461,0-12.535,7.951-12.535,17.528c0,14.51,5.492,16.599,12.535,16.599c6.805,0,11.341-3.308,11.341-10.563h-5.85
			c-0.119,3.308-2.029,6.21-5.729,6.21c-4.06,0-6.566-1.799-6.566-10.97H532.567z M514.182,369.705c0-9.054,2.865-10.68,6.208-10.68
			c3.939,0,6.565,1.161,6.565,10.68H514.182"/>
		<path id="path76" fill="#FFFFFF" d="M564.321,388.452V365.7c0-6.5-1.79-10.737-8.834-10.737c-4.178,0-6.686,1.161-8.715,4.875
			h-0.238v-4.237h-5.73c0.238,2.322,0.358,4.585,0.358,6.849v26.002h5.372v-19.443c0-4.469,0.835-9.692,6.685-9.692
			c4.537,0,5.73,2.844,5.73,6.384v22.751H564.321"/>
		<path id="path78" fill="#FFFFFF" d="M573.514,347.244h5.97v-5.746h-5.97V347.244z M579.125,355.601h-5.253v32.851h5.253V355.601"
			/>
		<path id="path80" fill="#FFFFFF" d="M599.3,389.09c6.925,0,12.535-2.089,12.535-16.599c0-9.577-1.193-17.528-12.535-17.528
			c-11.341,0-12.415,7.951-12.415,17.528C586.885,387.001,592.376,389.09,599.3,389.09z M599.3,384.738
			c-5.491,0-6.924-3.831-6.924-14.51c0-8.938,2.865-10.911,6.924-10.911c4.06,0,6.925,1.973,6.925,10.911
			C606.225,380.906,604.792,384.738,599.3,384.738"/>
		<path id="path82" fill="#FFFFFF" d="M624.848,355.601h-5.372v32.851h5.372v-19.385c0-4.411,1.433-8.88,7.401-8.88
			c0.955,0,1.91,0.174,2.865,0.29v-5.514c-5.253,0-7.998,0.58-10.147,5.572h-0.119V355.601"/>
		<path id="path84" fill="#FFFFFF" d="M664.243,373.768v-2.786c0-10.853-2.388-16.019-11.699-16.019
			c-11.341,0-12.535,7.951-12.535,17.528c0,14.51,5.492,16.599,12.535,16.599c6.924,0,11.341-3.308,11.461-10.563h-5.85
			c-0.239,3.308-2.149,6.21-5.73,6.21c-4.179,0-6.686-1.799-6.686-10.97H664.243z M645.739,369.705
			c0.119-9.054,2.865-10.68,6.208-10.68c3.939,0,6.565,1.161,6.565,10.68H645.739"/>
		<path id="path86" fill="#FFFFFF" d="M695.044,388.452V365.7c0-6.5-1.791-10.737-8.835-10.737c-4.178,0-6.685,1.161-8.715,4.875
			h-0.238v-4.237h-5.73c0.239,2.322,0.358,4.585,0.358,6.849v26.002h5.372v-19.443c0-4.469,0.836-9.692,6.686-9.692
			c4.536,0,5.73,2.844,5.73,6.384v22.751H695.044"/>
		<path id="path88" fill="#FFFFFF" d="M701.609,396.694h4.179l5.85-15.032h-6.686L701.609,396.694"/>
		<path id="path90" fill="#FFFFFF" d="M734.44,388.452v-21.475h16.475v-5.166H734.44v-15.09h17.31v-5.224H728.47v46.954H734.44"/>
		<path id="path92" fill="#FFFFFF" d="M762.136,355.601h-5.372v32.851h5.372v-19.385c0-4.411,1.433-8.88,7.401-8.88
			c0.955,0,1.91,0.174,2.865,0.29v-5.514c-5.253,0-7.999,0.58-10.147,5.572h-0.119V355.601"/>
		<path id="path94" fill="#FFFFFF" d="M793.772,388.452h5.85c-0.358-2.554-0.597-5.224-0.597-7.835V364.83
			c0-5.514-2.269-9.867-10.745-9.867c-6.924,0-10.863,2.554-11.102,9.867h5.85c-0.358-3.424,1.552-5.804,5.133-5.804
			c5.73,0,5.611,4.701,5.492,9.054c-7.521-0.174-17.191,0.291-17.191,10.215c0,6.326,2.029,10.795,8.954,10.795
			c4.059,0,6.565-1.625,8.237-5.397h0.119V388.452z M793.652,372.143c0.478,10.563-3.463,12.595-6.805,12.595
			c-3.582,0-5.134-2.844-5.134-6.036C781.714,371.737,788.519,372.201,793.652,372.143"/>
		<path id="path96" fill="#FFFFFF" d="M825.647,377.424c0,5.456-3.582,7.545-6.447,7.545c-3.82,0-5.61-2.612-5.61-6.617v-22.751
			h-5.253v25.015c0,5.63,3.104,8.474,8.834,8.474c3.343,0,6.566-1.625,8.237-4.585h0.239v3.947h5.61
			c-0.119-2.264-0.238-4.585-0.238-6.849v-26.002h-5.372V377.424"/>
		<path id="path98" fill="#FFFFFF" d="M863.609,373.768v-2.786c0-10.853-2.388-16.019-11.699-16.019
			c-11.342,0-12.535,7.951-12.535,17.528c0,14.51,5.61,16.599,12.535,16.599c6.924,0,11.341-3.308,11.46-10.563h-5.85
			c-0.238,3.308-2.148,6.21-5.73,6.21c-4.178,0-6.685-1.799-6.685-10.97H863.609z M845.106,369.705
			c0.119-9.054,2.865-10.68,6.207-10.68c3.939,0,6.566,1.161,6.566,10.68H845.106"/>
		<path id="path100" fill="#FFFFFF" d="M894.171,388.452V365.7c0-6.5-1.791-10.737-8.835-10.737c-4.178,0-6.685,1.161-8.715,4.875
			h-0.238v-4.237h-5.73c0.239,2.322,0.358,4.585,0.358,6.849v26.002h5.372v-19.443c0-4.469,0.836-9.692,6.686-9.692
			c4.536,0,5.73,2.844,5.73,6.384v22.751H894.171"/>
		<path id="path102" fill="#FFFFFF" d="M197.943,318.804c5.252,0,14.087-1.161,14.087-13.175c0-6.442-2.985-10.505-9.67-11.26
			v-0.348c6.088-1.335,8.118-5.282,8.118-11.085c0-0.929-0.239-3.715-1.91-6.269c-1.791-2.612-3.939-4.817-10.505-4.817h-15.281
			v46.954H197.943z M188.869,277.074h8.357c5.014,0,7.282,3.192,7.282,7.081c0,4.527-2.269,7.429-7.043,7.487h-8.596V277.074z
			 M188.869,296.807h6.327c6.088,0,10.745,1.335,10.745,8.822c0,3.424-2.269,7.951-8.715,7.951h-8.357V296.807"/>
		<path id="path104" fill="#FFFFFF" d="M237.1,307.777c0,5.456-3.582,7.545-6.328,7.545c-3.82,0-5.611-2.612-5.611-6.616v-22.751
			h-5.372v25.015c0,5.63,3.104,8.474,8.834,8.474c3.462,0,6.566-1.625,8.356-4.585h0.12v3.947h5.729
			c-0.238-2.264-0.357-4.585-0.357-6.849v-26.001H237.1V307.777"/>
		<path id="path106" fill="#FFFFFF" d="M275.301,318.804v-22.751c0-6.5-1.791-10.737-8.834-10.737c-4.179,0-6.686,1.161-8.715,4.875
			h-0.358v-4.237h-5.61c0.238,2.321,0.357,4.585,0.357,6.849v26.001h5.253v-19.443c0-4.469,0.836-9.692,6.686-9.692
			c4.656,0,5.85,2.844,5.85,6.384v22.751H275.301"/>
		<path id="path108" fill="#FFFFFF" d="M301.445,289.262h-0.238c-1.791-2.554-4.06-3.947-7.163-3.947
			c-10.625,0-10.864,9.402-10.864,17.644c0,14.394,5.372,16.483,10.625,16.483c3.462,0,5.73-1.509,7.521-4.527h0.119v3.889h5.372
			v-46.954h-5.372V289.262z M301.445,301.044c0,6.617,0,14.046-5.969,14.046c-6.686,0-6.686-7.139-6.686-12.072
			c0-8.764,0.716-13.349,6.446-13.349C301.207,289.669,301.445,296.692,301.445,301.044"/>
		<path id="path110" fill="#FFFFFF" d="M339.05,304.12v-2.786c0-10.854-2.388-16.019-11.699-16.019
			c-11.46,0-12.534,7.952-12.534,17.528c0,14.51,5.491,16.6,12.534,16.6c6.805,0,11.342-3.309,11.461-10.563h-5.85
			c-0.239,3.308-2.149,6.21-5.73,6.21c-4.179,0-6.686-1.799-6.686-10.97H339.05z M320.546,300.058
			c0.12-9.054,2.865-10.679,6.208-10.679c3.939,0,6.566,1.161,6.566,10.679H320.546"/>
		<path id="path112" fill="#FFFFFF" d="M368.418,309.46c0-10.041-16.355-9.925-16.355-15.671c0-2.902,2.149-4.411,5.014-4.411
			c3.343,0,5.253,1.799,5.134,5.223h5.969c0.478-6.5-4.536-9.286-10.386-9.286c-9.312,0-11.341,5.514-11.341,8.996
			c0,9.809,16.354,9.925,16.354,15.787c0,3.367-2.507,4.992-5.61,4.992c-5.491,0-5.491-4.411-5.491-6.326h-6.089
			c-0.119,7.545,4.298,10.679,11.341,10.679C363.404,319.443,368.418,316.657,368.418,309.46"/>
		<path id="path114" fill="#FFFFFF" d="M398.144,318.804v-22.113c0-1.219,0.239-4.469,1.791-5.804
			c1.433-1.161,2.029-1.219,4.059-1.219c4.298,0,5.253,3.076,5.253,6.384v22.751h5.253v-24.957c0-7.719-5.491-8.532-8.954-8.532
			c-2.984,0-5.969,0.696-7.76,4.237c-1.193-3.018-4.655-4.237-7.64-4.237c-3.82,0-6.686,1.219-8.237,4.759h-0.12v-4.121h-5.61
			c0.119,2.321,0.238,4.585,0.238,6.849v26.001h5.372v-22.113c0-1.219,0.239-3.192,1.194-4.817c0.836-1.219,2.984-2.206,4.656-2.206
			c4.297,0,5.133,3.076,5.133,6.384v22.751H398.144"/>
		<path id="path116" fill="#FFFFFF" d="M423.692,277.596h5.969v-5.746h-5.969V277.596z M429.302,285.954h-5.372v32.85h5.372V285.954
			"/>
		<path id="path118" fill="#FFFFFF" d="M462.132,318.804v-22.751c0-6.5-1.791-10.737-8.834-10.737c-4.179,0-6.686,1.161-8.715,4.875
			h-0.239v-4.237h-5.73c0.239,2.321,0.358,4.585,0.358,6.849v26.001h5.372v-19.443c0-4.469,0.836-9.692,6.686-9.692
			c4.536,0,5.73,2.844,5.73,6.384v22.751H462.132"/>
		<path id="path120" fill="#FFFFFF" d="M471.205,277.596h5.969v-5.746h-5.969V277.596z M476.816,285.954h-5.253v32.85h5.253V285.954
			"/>
		<path id="path122" fill="#FFFFFF" d="M507.139,309.46c0-10.041-16.355-9.925-16.355-15.671c0-2.902,2.148-4.411,5.014-4.411
			c3.462,0,5.253,1.799,5.134,5.223h5.969c0.478-6.5-4.536-9.286-10.386-9.286c-9.192,0-11.342,5.514-11.342,8.996
			c0,9.809,16.355,9.925,16.355,15.787c0,3.367-2.388,4.992-5.611,4.992c-5.372,0-5.491-4.411-5.491-6.326h-5.969
			c-0.239,7.545,4.179,10.679,11.222,10.679C502.244,319.443,507.139,316.657,507.139,309.46"/>
		<path id="path124" fill="#FFFFFF" d="M510.72,285.954v4.063h5.372v23.332c0,3.772,2.269,5.862,7.401,5.862
			c1.672,0,3.462-0.406,5.253-0.522v-4.121c-1.193,0.116-2.029,0.29-2.388,0.29c-4.895,0-4.895-2.67-4.895-4.759v-20.082h7.163
			v-4.063h-7.163v-8.706l-5.372,2.438v6.269H510.72"/>
		<path id="path126" fill="#FFFFFF" d="M557.278,304.12v-2.786c0-10.854-2.388-16.019-11.699-16.019
			c-11.461,0-12.535,7.952-12.535,17.528c0,14.51,5.491,16.6,12.535,16.6c6.805,0,11.341-3.309,11.46-10.563h-5.85
			c-0.238,3.308-2.148,6.21-5.73,6.21c-4.178,0-6.685-1.799-6.685-10.97H557.278z M538.775,300.058
			c0.119-9.054,2.865-10.679,6.208-10.679c3.939,0,6.565,1.161,6.565,10.679H538.775"/>
		<path id="path128" fill="#FFFFFF" d="M570.41,285.954h-5.253v32.85h5.253v-19.385c0-4.411,1.552-8.88,7.401-8.88
			c0.955,0,1.91,0.174,2.865,0.29v-5.514c-5.134,0-7.879,0.581-10.147,5.572h-0.119V285.954"/>
		<path id="path130" fill="#FFFFFF" d="M586.049,277.596h5.969v-5.746h-5.969V277.596z M591.779,285.954h-5.372v32.85h5.372V285.954
			"/>
		<path id="path132" fill="#FFFFFF" d="M618.521,307.777c0,5.456-3.581,7.545-6.446,7.545c-3.82,0-5.611-2.612-5.611-6.616v-22.751
			h-5.372v25.015c0,5.63,3.224,8.474,8.954,8.474c3.342,0,6.446-1.625,8.236-4.585h0.239v3.947h5.61
			c-0.119-2.264-0.357-4.585-0.357-6.849v-26.001h-5.253V307.777"/>
		<path id="path134" fill="#FFFFFF" d="M655.051,318.804v-22.113c0-1.219,0.358-4.469,1.91-5.804
			c1.433-1.161,1.91-1.219,3.939-1.219c4.298,0,5.253,3.076,5.253,6.384v22.751h5.372v-24.957c0-7.719-5.61-8.532-9.073-8.532
			c-2.984,0-5.969,0.696-7.76,4.237c-1.193-3.018-4.655-4.237-7.64-4.237c-3.82,0-6.686,1.219-8.237,4.759h-0.12v-4.121h-5.61
			c0.119,2.321,0.358,4.585,0.358,6.849v26.001h5.252v-22.113c0-1.219,0.239-3.192,1.313-4.817c0.717-1.219,2.984-2.206,4.537-2.206
			c4.297,0,5.252,3.076,5.252,6.384v22.751H655.051"/>
		<path id="path136" fill="#F7D100" d="M121.18,620.61h20.534V504.53H121.18V620.61z"/>
		<path id="path138" fill="#E3001B" d="M121.18,504.53h20.534V388.046H121.18V504.53z"/>
		<path id="path140" d="M121.18,388.452h20.534V272.373H121.18V388.452z"/>
		<path id="path142" fill="#FFFFFF" d="M31.287,302.902c0.478,0,0.955,0.058,1.552,0.058c9.192,0,18.265-5.92,18.265-13.523
			c0-4.063-1.791-6.907-4.059-10.041c-1.313,0.232-2.626,0.348-3.462,0.348c-4.178,0-6.447-2.264-6.566-4.411
			c0-1.973,1.552-3.482,4.059-3.482c3.82,0,10.863,3.598,17.907,3.598c-0.716,0.522-1.791,1.103-3.223,1.625
			c4.178,3.715,6.924,8.764,7.999,14.104l10.864,17.354c1.791,2.96,5.611,8.648,11.46,13.059c-7.043,0-11.699,0.174-17.549-9.17
			l-5.611-8.938c-0.478,1.161-0.955,2.263-1.552,3.366l11.103,17.702c1.791,2.96,5.611,8.648,11.46,13.117
			c-7.043,0-11.699,0.116-17.549-9.228l-9.551-15.265c-0.716,0.754-1.432,1.509-2.268,2.206l13.371,21.533
			c1.91,2.902,5.73,8.532,11.58,13.059c-7.043,0-11.699,0.116-17.668-9.229l-13.132-21.01c-0.835,0.581-1.671,1.103-2.626,1.567
			l15.997,25.596c1.91,2.96,5.611,8.59,11.46,13.059c-6.924,0-11.699,0.174-17.549-9.228l-16.475-26.35
			c-0.955,0.406-2.029,0.754-2.984,1.045l18.624,29.832c1.791,2.844,5.73,8.59,11.46,13.001c-7.043,0-11.699,0.174-17.668-9.229
			l-19.817-31.748l-0.597,0.116c-0.478,1.741-0.836,3.308-0.836,4.933c0,9.983,6.447,18.805,14.326,25.596
			c-0.477,0.232-1.313,0.29-2.148,0.29c-1.671,0-2.626-0.116-3.462-0.232c1.91,4.179,5.73,9.519,7.76,12.246
			c2.507-0.464,6.327-0.813,8.715-0.813c2.626,0,2.865,1.509,2.865,2.844c0,2.321-1.074,4.179-2.268,5.223
			c-0.478-1.219-1.433-2.786-6.208-2.786h-0.478c1.313,1.567,5.73,5.049,5.73,7.894c0,1.857-2.03,4.643-4.775,4.643
			c0.12-0.581,0.12-1.161,0.12-1.567c0-2.263-2.03-4.933-3.701-6.791c0,0.522,0,0.464,0,1.103c0,5.456-0.478,7.894-3.939,7.894
			c-1.671,0-2.865-0.929-3.223-1.161c2.268-2.089,2.388-3.714,2.388-6.733v-2.611c-0.12-0.697,0-1.625,0-2.264
			c-1.194-0.174-1.671-0.174-2.626-0.174c0,0-4.895-0.406-6.088,2.147c-1.313-1.219-3.224-2.902-3.224-4.817
			c0-1.277,0.597-2.67,3.104-2.67c0.955,0,3.94,0.58,6.447,0.58c-0.597-1.451-3.582-5.862-6.208-9.054
			c-0.358,1.219-1.074,2.611-2.388,3.656c-0.239-2.031-1.432-8.474-4.536-12.246c-0.358,2.554-0.955,5.165-0.955,10.679
			c0,13.407,3.223,23.332,10.147,25.247c-0.955,1.567-2.746,2.96-4.775,2.96c-2.507,0-3.82-2.844-5.253-5.514
			c-0.716,1.973-2.746,6.791-4.775,6.791c-1.91,0-3.94-4.817-4.656-6.791c-1.432,2.669-2.746,5.514-5.252,5.514
			c-2.03,0-3.939-1.393-4.775-2.96c6.805-1.916,10.028-11.84,10.028-25.247c0-5.514-0.478-8.125-0.835-10.679
			c-3.223,3.772-4.417,10.215-4.537,12.246c-1.433-1.045-2.029-2.438-2.388-3.656c-2.626,3.192-5.611,7.603-6.327,9.054
			c2.507,0,5.611-0.58,6.447-0.58c2.507,0,3.104,1.393,3.104,2.67c0,1.915-1.91,3.598-3.224,4.817
			c-1.193-2.554-5.969-2.147-5.969-2.147c-0.955,0-1.433,0-2.746,0.174c0.119,0.639,0.119,1.567,0.119,2.264v2.611
			c0,3.019,0.12,4.644,2.388,6.733c-0.478,0.232-1.552,1.161-3.223,1.161c-3.462,0-3.94-2.438-3.94-7.894
			c0-0.638-0.119-0.58,0-1.103c-1.671,1.857-3.701,4.527-3.701,6.791c0,0.406-0.119,0.987,0.12,1.567
			c-2.746,0-4.775-2.786-4.775-4.643c0-2.844,4.298-6.327,5.73-7.894h-0.478c-4.775,0-5.73,1.567-6.208,2.786
			c-1.194-1.044-2.268-2.902-2.268-5.223c0-1.335,0.239-2.844,2.746-2.844s6.208,0.348,8.834,0.813
			c1.91-2.728,5.85-8.067,7.641-12.246c-0.716,0.116-1.791,0.232-3.343,0.232c-0.835,0-1.671-0.058-2.149-0.29
			c7.76-6.791,14.326-15.613,14.326-25.596c0-1.625-0.358-3.192-0.955-4.933l-0.597-0.116l-19.817,31.748
			c-5.85,9.402-10.505,9.229-17.549,9.229c5.73-4.411,9.67-10.157,11.46-13.001l18.624-29.832c-1.075-0.291-2.03-0.639-2.984-1.045
			l-16.475,26.35c-5.969,9.402-10.625,9.228-17.668,9.228c5.85-4.469,9.67-10.099,11.58-13.059L-9.422,321.3
			c-0.955-0.464-1.791-0.986-2.746-1.567l-13.012,21.01c-5.969,9.344-10.625,9.229-17.668,9.229
			c5.85-4.527,9.67-10.157,11.46-13.059l13.49-21.533c-0.836-0.696-1.552-1.451-2.269-2.206l-9.55,15.265
			c-5.969,9.344-10.625,9.228-17.549,9.228c5.73-4.469,9.55-10.157,11.46-13.117l10.983-17.702
			c-0.478-1.103-1.074-2.206-1.433-3.366l-5.611,8.938c-5.969,9.344-10.625,9.17-17.549,9.17c5.73-4.411,9.67-10.099,11.46-13.059
			l10.864-17.354c1.074-5.34,3.82-10.389,7.999-14.104c-1.433-0.522-2.626-1.103-3.343-1.625c7.163,0,14.206-3.598,18.026-3.598
			c2.507,0,4.059,1.509,4.059,3.482c-0.12,2.147-2.388,4.411-6.566,4.411c-0.955,0-2.149-0.116-3.462-0.348
			c-2.269,3.134-4.059,5.978-4.059,10.041c0,7.603,9.073,13.523,18.265,13.523c0.478,0,0.955-0.058,1.552-0.058
			c1.791-6.152,5.611-10.215,8.714-14.162c-3.701-1.335-7.76-4.875-7.76-6.442c0.478-0.29,7.521,1.916,8.237,2.147
			c0.239,0,0.358,0.058,0.478,0c0.836-0.29,1.671-1.509,1.671-1.683c-0.835-0.116-5.252-0.696-8.356-1.799
			c-2.269-0.813-3.462-2.379-3.462-2.96c0.716-0.116,3.581,1.393,7.759,1.393c1.433,0,1.791-0.116,3.343-0.29
			c-1.074-2.554-3.104-4.701-5.372-4.701c-0.955,0-2.865,0.58-4.537,1.393c-1.193-1.741-2.148-4.121-2.148-5.397
			c0-1.567,1.433-3.308,5.73-3.308c1.194,0,2.269,0.058,3.343,0.29c0.835,0.116,1.552,0.348,2.268,0.638
			c-0.119-0.116-0.119-0.348-0.119-0.58c0-0.581,0.597-1.161,2.507-1.161c3.582,0,7.163,1.103,11.46,1.103
			c1.194,0,1.91,0,2.626-0.29c-0.239,0.871-1.552,2.147-2.626,3.192c0.716,0.987,2.507,3.25,2.507,7.023
			c0,5.978-3.94,10.911-3.94,16.947C27.705,297.852,30.451,300.987,31.287,302.902z M20.781,274.346
			c3.223,0.638,5.372-3.482,2.388-4.237c0.358,1.335-1.671,2.321-1.671,2.321s-0.836-1.857,0.239-2.902
			c-1.91-0.929-2.388,0.232-2.507,1.393C20.065,271.908,20.543,273.07,20.781,274.346z M18.036,280.789
			c0.597-1.393,1.313-3.018,1.313-4.875c0-4.991-4.059-7.371-9.67-7.371c-2.865,0-4.297,0.929-4.297,1.857s0.955,2.96,1.313,3.599
			c0.955-0.464,2.865-1.045,3.939-1.045C14.454,272.953,17.319,277.248,18.036,280.789z M-17.659,289.727
			c0-4.875,3.223-8.59,5.014-10.795l-1.194-0.232c-1.671,1.451-6.566,6.674-6.566,13.291c0,11.607,11.699,22.345,24.951,22.403
			c-0.119-1.219-0.239-2.554-0.239-4.004c0-0.871,0-1.741,0.12-2.612C-7.273,307.777-17.659,299.361-17.659,289.727z M5.501,359.722
			c-0.478-1.393-0.835-2.438-2.268-2.438c-0.716,0-1.075,0.116-1.552,0.291c-1.671,4.411-7.76,12.71-8.715,13.987
			c-2.626-0.464-6.327-0.929-9.312-0.929c-0.716,0-1.671-0.058-1.671,1.625c0,0.986,0.478,2.669,0.955,3.25
			c1.313-1.567,3.582-2.031,6.447-2.031c1.074,0,2.387,0.348,2.865,0.522c-3.581,3.598-6.924,6.558-6.924,8.59
			c0,1.103,1.194,2.611,2.149,3.076c0-2.96,3.104-7.022,6.088-9.286c0,0.406,0.119,1.916,0.119,3.598
			c0,5.572,0.597,6.675,2.746,6.675c0.358,0,0.955-0.116,1.313-0.29c-1.194-1.277-1.671-3.076-1.671-6.385c0-0.928,0-1.857,0-2.611
			c0-1.451-0.119-2.496-0.239-3.309c0.836-0.116,2.626-0.406,4.059-0.406c2.865,0,4.656,0.29,5.969,1.625
			c0.955-0.754,2.03-2.089,2.03-3.018c0-1.335-0.955-1.451-1.91-1.451c-1.433,0-2.626,0.58-8.237,0.58
			C-1.185,368.254,2.039,363.785,5.501,359.722z M38.927,371.388c-5.611,0-6.805-0.58-8.357-0.58c-0.955,0-1.791,0.116-1.791,1.451
			c0,0.928,1.074,2.263,1.91,3.018c1.313-1.335,3.223-1.625,6.088-1.625c1.433,0,3.223,0.29,4.059,0.406
			c-0.12,0.813-0.239,1.857-0.239,3.309c0,0.754,0,1.683,0,2.611c0,3.309-0.478,5.108-1.671,6.385
			c0.239,0.174,0.955,0.29,1.313,0.29c2.149,0,2.746-1.103,2.746-6.675c0-1.683,0.12-3.192,0.12-3.598
			c2.984,2.264,6.088,6.326,6.088,9.286c0.955-0.464,2.149-1.973,2.149-3.076c0-2.032-3.462-4.992-7.043-8.59
			c0.597-0.174,1.91-0.522,2.984-0.522c2.746,0,5.014,0.464,6.327,2.031c0.597-0.581,0.955-2.264,0.955-3.25
			c0-1.684-0.955-1.625-1.671-1.625c-2.984,0-6.566,0.464-9.312,0.929c-0.955-1.277-7.043-9.577-8.596-13.987
			c-0.477-0.174-0.835-0.291-1.552-0.291c-1.433,0-1.91,1.045-2.268,2.438C34.51,363.785,37.853,368.254,38.927,371.388z
			 M56.954,291.99c0-6.617-4.775-11.84-6.447-13.291l-1.194,0.232c1.791,2.206,4.895,5.92,4.895,10.795
			c0,9.576-10.147,17.876-21.608,18.05c0,0.987,0,1.857,0,2.612c0,1.393-0.12,2.728-0.239,4.004
			C45.493,314.161,56.954,303.482,56.954,291.99z M3.71,388.452L3.71,388.452z M3.71,388.51L3.71,388.51z M3.71,388.51L3.71,388.51z
			 M3.71,388.452L3.71,388.452"/>
	</g>
</g>
</svg>
